<?xml version="1.0" encoding="UTF-8"?>
<!DOCTYPE svg PUBLIC "-//W3C//DTD SVG 1.1//EN" "http://www.w3.org/Graphics/SVG/1.1/DTD/svg11.dtd">
<!-- Creator: CorelDRAW Standard 2024 -->
<svg xmlns="http://www.w3.org/2000/svg" xml:space="preserve" width="856px" height="472px" version="1.1" style="shape-rendering:geometricPrecision; text-rendering:geometricPrecision; image-rendering:optimizeQuality; fill-rule:evenodd; clip-rule:evenodd"
viewBox="0 0 856 472.276"
 xmlns:xlink="http://www.w3.org/1999/xlink"
 xmlns:xodm="http://www.corel.com/coreldraw/odm/2003">
 <defs>
  <style type="text/css">
   <![CDATA[
    .str0 {stroke:#3A7CD5;stroke-width:4.686;stroke-miterlimit:22.9256}
    .fil3 {fill:none;fill-rule:nonzero}
    .fil0 {fill:#1E5AAA;fill-rule:nonzero}
    .fil1 {fill:#3A7CD5;fill-rule:nonzero}
    .fil2 {fill:#5B9AE5;fill-rule:nonzero}
    .fil4 {fill:white;fill-rule:nonzero}
   ]]>
  </style>
 </defs>
 <g id="Vrstva_x0020_1">
  <metadata id="CorelCorpID_0Corel-Layer"/>
  <circle class="fil0" cx="133.862" cy="232.083" r="116.363"/>
  <ellipse class="fil1" cx="135.097" cy="232.738" rx="95.6" ry="97.341"/>
  <circle class="fil2" cx="134.563" cy="254.771" r="73.466"/>
  <path class="fil0" d="M288.654 252.976l16.606 0 0.804 -29.77 -17.331 -0.541 0.079 9.629 -0.158 20.682zm-16.382 -11.238l-0.633 -32.276c4.115,-0.329 7.94,-0.58 11.448,-0.726 3.522,-0.158 6.74,-0.237 9.682,-0.237 6.753,0 12.121,0.752 16.131,2.242 3.996,1.491 7.479,3.971 10.446,7.413 2.084,2.427 3.588,4.854 4.498,7.308 0.911,2.439 1.372,5.249 1.372,8.414 0,11.885 -2.73,20.419 -8.204,25.615 -5.474,5.21 -14.562,7.809 -27.251,7.809 -2.294,0 -4.893,-0.079 -7.808,-0.251 -2.915,-0.158 -6.344,-0.422 -10.314,-0.778l0.633 -24.533z"/>
  <polygon id="_1" class="fil0" points="333.974,238.348 333.433,208.657 351.16,209.04 350.619,235.908 351.16,266.746 333.433,267.063 "/>
  <path id="_2" class="fil0" d="M359.786 248.464l18.598 0.858c0,1.082 0.026,2.137 0.08,3.153 0.052,1.028 0.144,2.03 0.263,3.007l17.701 0.817c0.026,-0.237 0.039,-0.553 0.039,-0.962 0.079,-2.256 0.12,-3.799 0.12,-4.657 0,-0.435 -0.014,-1.068 -0.054,-1.912 -0.039,-0.844 -0.105,-1.912 -0.184,-3.232 -2.19,-0.264 -5.289,-0.514 -9.312,-0.778 -8.89,-0.593 -14.984,-1.741 -18.282,-3.429 -3.046,-1.543 -5.328,-3.68 -6.845,-6.397 -1.517,-2.718 -2.282,-5.989 -2.282,-9.826 0,-6.543 2.203,-11.238 6.621,-14.074 4.419,-2.849 11.805,-4.274 22.173,-4.274 7.623,0 13.493,1.425 17.635,4.274 4.128,2.849 6.199,6.885 6.199,12.121 0,0.343 -0.013,0.699 -0.039,1.082 -0.027,0.395 -0.067,0.844 -0.12,1.358l-18.043 -0.62 0.316 -6.001c-1.728,-0.264 -3.522,-0.448 -5.368,-0.567 -1.86,-0.119 -3.812,-0.172 -5.869,-0.172 -0.897,0 -1.874,0.013 -2.916,0.053 -1.041,0.039 -2.176,0.119 -3.415,0.224l-0.08 9.55 1.926 0c12.728,0 22.08,1.648 28.055,4.92 5.975,3.284 8.956,8.415 8.956,15.392 0,6.542 -2.335,11.621 -6.991,15.248 -4.669,3.614 -11.251,5.421 -19.745,5.421 -9.22,0 -16.395,-1.689 -21.526,-5.052 -5.131,-3.364 -7.69,-8.046 -7.69,-14.061 0,-0.25 0.014,-0.501 0.027,-0.725 0.013,-0.237 0.026,-0.475 0.052,-0.739z"/>
  <path id="_3" class="fil0" d="M477.242 244.442l0 1.015c0,6.964 -2.374,12.649 -7.123,17.015 -4.761,4.379 -10.987,6.569 -18.689,6.569 -9.115,0 -16.356,-2.77 -21.711,-8.31 -5.355,-5.54 -8.033,-13.005 -8.033,-22.409 0,-9.524 2.691,-17.174 8.073,-22.925 5.381,-5.763 12.53,-8.639 21.446,-8.639 7.914,0 14.258,2.032 19.073,6.081 4.801,4.062 7.202,9.418 7.202,16.065 0,0.251 -0.014,0.554 -0.04,0.884 -0.026,0.343 -0.079,0.87 -0.158,1.582 -1.056,0.053 -2.216,0.093 -3.495,0.119 -1.28,0.027 -2.612,0.04 -3.997,0.04 -1.622,0 -3.324,-0.026 -5.091,-0.093 -1.768,-0.066 -3.654,-0.171 -5.659,-0.29l-0.739 -11.805 -15.814 0 -0.699 21.539 0.461 12.966 18.703 0 0.937 -10.367 15.353 0.963z"/>
  <path id="_4" class="fil0" d="M485.882 208.025l17.964 1.108 0.079 17.331 1.425 27.461 15.775 0.237 0.765 -26.419 -1.346 -18.268 15.01 -0.58 0.343 15.907c0.079,3.891 0.146,7.188 0.185,9.879 0.04,2.691 0.053,4.775 0.053,6.278 0,5.897 -0.383,10.328 -1.161,13.309 -0.765,2.968 -2.071,5.434 -3.904,7.399 -2.229,2.441 -4.959,4.287 -8.178,5.514 -3.232,1.24 -6.885,1.86 -10.974,1.86 -5.724,0 -10.512,-0.963 -14.377,-2.902 -3.851,-1.925 -6.687,-4.761 -8.494,-8.494 -0.976,-2.058 -1.728,-5.303 -2.242,-9.734 -0.515,-4.432 -0.792,-10.064 -0.844,-16.884l-0.079 -23.002z"/>
  <path id="_5" class="fil0" d="M545.156 248.464l18.599 0.858c0,1.082 0.025,2.137 0.079,3.153 0.052,1.028 0.144,2.03 0.264,3.007l17.7 0.817c0.026,-0.237 0.039,-0.553 0.039,-0.962 0.079,-2.256 0.12,-3.799 0.12,-4.657 0,-0.435 -0.014,-1.068 -0.054,-1.912 -0.039,-0.844 -0.105,-1.912 -0.184,-3.232 -2.19,-0.264 -5.289,-0.514 -9.312,-0.778 -8.89,-0.593 -14.984,-1.741 -18.282,-3.429 -3.046,-1.543 -5.328,-3.68 -6.845,-6.397 -1.517,-2.718 -2.282,-5.989 -2.282,-9.826 0,-6.543 2.203,-11.238 6.621,-14.074 4.419,-2.849 11.806,-4.274 22.173,-4.274 7.623,0 13.493,1.425 17.635,4.274 4.128,2.849 6.199,6.885 6.199,12.121 0,0.343 -0.013,0.699 -0.039,1.082 -0.027,0.395 -0.067,0.844 -0.12,1.358l-18.043 -0.62 0.316 -6.001c-1.727,-0.264 -3.522,-0.448 -5.368,-0.567 -1.86,-0.119 -3.812,-0.172 -5.869,-0.172 -0.897,0 -1.874,0.013 -2.915,0.053 -1.042,0.039 -2.176,0.119 -3.416,0.224l-0.08 9.55 1.926 0c12.728,0 22.08,1.648 28.055,4.92 5.975,3.284 8.956,8.415 8.956,15.392 0,6.542 -2.335,11.621 -6.991,15.248 -4.669,3.614 -11.251,5.421 -19.745,5.421 -9.22,0 -16.395,-1.689 -21.526,-5.052 -5.131,-3.364 -7.69,-8.046 -7.69,-14.061 0,-0.25 0.014,-0.501 0.027,-0.725 0.013,-0.237 0.026,-0.475 0.052,-0.739z"/>
  <path id="_6" class="fil0" d="M607.452 248.464l18.598 0.858c0,1.082 0.026,2.137 0.079,3.153 0.053,1.028 0.145,2.03 0.264,3.007l17.7 0.817c0.027,-0.237 0.04,-0.553 0.04,-0.962 0.079,-2.256 0.119,-3.799 0.119,-4.657 0,-0.435 -0.013,-1.068 -0.053,-1.912 -0.04,-0.844 -0.106,-1.912 -0.185,-3.232 -2.189,-0.264 -5.289,-0.514 -9.312,-0.778 -8.89,-0.593 -14.983,-1.741 -18.281,-3.429 -3.047,-1.543 -5.329,-3.68 -6.845,-6.397 -1.517,-2.718 -2.282,-5.989 -2.282,-9.826 0,-6.543 2.203,-11.238 6.621,-14.074 4.419,-2.849 11.805,-4.274 22.172,-4.274 7.624,0 13.494,1.425 17.635,4.274 4.129,2.849 6.2,6.885 6.2,12.121 0,0.343 -0.014,0.699 -0.04,1.082 -0.026,0.395 -0.066,0.844 -0.119,1.358l-18.043 -0.62 0.316 -6.001c-1.728,-0.264 -3.522,-0.448 -5.369,-0.567 -1.859,-0.119 -3.811,-0.172 -5.869,-0.172 -0.897,0 -1.873,0.013 -2.915,0.053 -1.042,0.039 -2.176,0.119 -3.416,0.224l-0.079 9.55 1.925 0c12.729,0 22.08,1.648 28.055,4.92 5.976,3.284 8.956,8.415 8.956,15.392 0,6.542 -2.334,11.621 -6.99,15.248 -4.669,3.614 -11.251,5.421 -19.746,5.421 -9.219,0 -16.395,-1.689 -21.525,-5.052 -5.131,-3.364 -7.69,-8.046 -7.69,-14.061 0,-0.25 0.013,-0.501 0.026,-0.725 0.013,-0.237 0.027,-0.475 0.053,-0.739z"/>
  <polygon id="_7" class="fil0" points="671.951,238.348 671.41,208.657 689.137,209.04 688.596,235.908 689.137,266.746 671.41,267.063 "/>
  <path id="_8" class="fil0" d="M716.77 254.11c3.165,0.33 6.331,0.58 9.483,0.752 3.153,0.171 6.318,0.25 9.484,0.25l1.2 -32.632 -21.209 -0.844 0 17.741 1.042 14.733zm11.396 14.931c-9.669,0 -17.213,-2.876 -22.647,-8.613 -5.434,-5.751 -8.152,-13.718 -8.152,-23.913 0,-4.485 0.356,-8.323 1.082,-11.515 0.725,-3.205 1.82,-5.725 3.284,-7.584 2.81,-3.575 6.279,-6.253 10.394,-8.007 4.128,-1.767 8.995,-2.651 14.601,-2.651 8.943,0 15.867,2.546 20.787,7.637 4.92,5.078 7.387,12.28 7.387,21.579 0,5.17 -0.752,9.84 -2.242,13.994 -1.491,4.168 -3.76,7.875 -6.794,11.159 -2.664,2.823 -5.342,4.853 -8.058,6.08 -2.718,1.227 -5.936,1.834 -9.642,1.834z"/>
  <path id="_9" class="fil0" d="M762.67 266.983c0.409,-9.919 0.726,-19.732 0.95,-29.426 0.211,-9.708 0.356,-19.311 0.395,-28.821l18.677 0 17.886 28.557c0.541,0.896 1.214,2.281 2.018,4.128 0.791,1.86 1.569,3.891 2.321,6.107 0,-1.266 0.013,-2.783 0.04,-4.577 0.027,-1.793 0.04,-2.928 0.04,-3.416 0,-3.152 -0.067,-6.965 -0.185,-11.436 -0.106,-4.484 -0.304,-10.406 -0.594,-17.78l12.979 0.159 -0.303 33.159 -0.238 23.346c-2.11,-0.105 -4.023,-0.184 -5.737,-0.237 -1.715,-0.053 -3.073,-0.08 -4.076,-0.08 -0.567,0 -1.873,0.027 -3.904,0.08 -1.517,0.053 -2.731,0.079 -3.627,0.079l-1.042 -1.583c-12.122,-18.043 -19.429,-30.851 -21.922,-38.462l-0.699 40.203 -12.979 0z"/>
  <line class="fil3 str0" x1="273.278" y1="300.129" x2="814.956" y2= "300.129" />
  <path class="fil4" d="M78.679 294.501l0 -4.426c4.013,-2.301 6.845,-4.042 8.527,-5.193 0.797,-10.12 1.21,-29.061 1.21,-56.853 0,-12.008 -0.118,-22.069 -0.384,-30.153 -0.265,-8.084 -0.649,-12.687 -1.15,-13.837 -0.236,-0.56 -0.591,-1.003 -1.121,-1.298 -0.856,-0.443 -5.046,-1.151 -12.569,-2.065l0 -7.435c8.704,0.354 18.676,0.531 29.975,0.531l42.545 -0.531c15.489,0 27.261,1.947 35.286,5.871 8.025,3.924 14.398,9.913 19.118,17.997 4.721,8.055 7.081,17.85 7.081,29.356 0,14.811 -3.688,27.586 -11.064,38.296 -7.376,10.739 -16.374,18.351 -26.996,22.924 -10.591,4.543 -21.92,6.816 -33.988,6.816l-32.778 -0.532c-5.252,0 -13.129,0.177 -23.692,0.532zm35.051 -10.622c4.868,0.826 9.824,1.239 14.899,1.239 12.893,0 22.718,-1.829 29.474,-5.517 6.757,-3.688 12.244,-9.707 16.434,-18.086 4.189,-8.349 6.284,-18.646 6.284,-30.831 0,-16.05 -4.16,-28.264 -12.48,-36.673 -7.346,-7.464 -19.325,-11.211 -35.965,-11.211 -3.599,0 -9.795,0.295 -18.646,0.885l-0.708 53.814c0,22.63 0.236,38.089 0.708,46.38z"/>
 </g>
</svg>
