<?xml version="1.0" encoding="UTF-8"?>
<!DOCTYPE svg PUBLIC "-//W3C//DTD SVG 1.1//EN" "http://www.w3.org/Graphics/SVG/1.1/DTD/svg11.dtd">
<!-- Creator: CorelDRAW Standard 2024 -->
<svg xmlns="http://www.w3.org/2000/svg" xml:space="preserve" width="856px" height="472px" version="1.1" style="shape-rendering:geometricPrecision; text-rendering:geometricPrecision; image-rendering:optimizeQuality; fill-rule:evenodd; clip-rule:evenodd"
viewBox="0 0 856 472.276"
 xmlns:xlink="http://www.w3.org/1999/xlink"
 xmlns:xodm="http://www.corel.com/coreldraw/odm/2003">
 <defs>
  <style type="text/css">
   <![CDATA[
    .str0 {stroke:#3A7CD5;stroke-width:4.686;stroke-miterlimit:22.9256}
    .fil3 {fill:none;fill-rule:nonzero}
    .fil0 {fill:#1E5AAA;fill-rule:nonzero}
    .fil1 {fill:#3A7CD5;fill-rule:nonzero}
    .fil2 {fill:#5B9AE5;fill-rule:nonzero}
    .fil4 {fill:white;fill-rule:nonzero}
   ]]>
  </style>
 </defs>
 <g id="Vrstva_x0020_1">
  <metadata id="CorelCorpID_0Corel-Layer"/>
  <circle class="fil0" cx="133.862" cy="216.144" r="116.363"/>
  <ellipse class="fil1" cx="135.097" cy="216.799" rx="95.6" ry="97.341"/>
  <circle class="fil2" cx="134.563" cy="238.831" r="73.466"/>
  <path class="fil0" d="M288.654 237.036l16.606 0 0.804 -29.769 -17.331 -0.541 0.079 9.628 -0.158 20.682zm-16.382 -11.237l-0.633 -32.276c4.115,-0.33 7.94,-0.581 11.448,-0.726 3.522,-0.158 6.74,-0.237 9.682,-0.237 6.753,0 12.121,0.752 16.131,2.242 3.996,1.491 7.479,3.971 10.446,7.413 2.084,2.427 3.588,4.854 4.498,7.307 0.911,2.44 1.372,5.25 1.372,8.415 0,11.884 -2.73,20.418 -8.204,25.615 -5.474,5.21 -14.562,7.809 -27.251,7.809 -2.294,0 -4.893,-0.08 -7.808,-0.251 -2.915,-0.159 -6.344,-0.422 -10.314,-0.778l0.633 -24.533z"/>
  <polygon id="_1" class="fil0" points="333.974,222.409 333.433,192.718 351.16,193.101 350.619,219.968 351.16,250.806 333.433,251.123 "/>
  <path id="_2" class="fil0" d="M359.786 232.525l18.598 0.858c0,1.081 0.026,2.136 0.08,3.152 0.052,1.029 0.144,2.031 0.263,3.007l17.701 0.818c0.026,-0.237 0.039,-0.554 0.039,-0.963 0.079,-2.255 0.12,-3.799 0.12,-4.656 0,-0.435 -0.014,-1.068 -0.054,-1.913 -0.039,-0.844 -0.105,-1.912 -0.184,-3.231 -2.19,-0.264 -5.289,-0.514 -9.312,-0.778 -8.89,-0.593 -14.984,-1.741 -18.282,-3.429 -3.046,-1.544 -5.328,-3.681 -6.845,-6.397 -1.517,-2.718 -2.282,-5.989 -2.282,-9.827 0,-6.542 2.203,-11.238 6.621,-14.074 4.419,-2.849 11.805,-4.273 22.173,-4.273 7.623,0 13.493,1.424 17.635,4.273 4.128,2.849 6.199,6.886 6.199,12.122 0,0.343 -0.013,0.699 -0.039,1.081 -0.027,0.396 -0.067,0.845 -0.12,1.359l-18.043 -0.62 0.316 -6.001c-1.728,-0.264 -3.522,-0.448 -5.368,-0.568 -1.86,-0.118 -3.812,-0.171 -5.869,-0.171 -0.897,0 -1.874,0.013 -2.916,0.053 -1.041,0.039 -2.176,0.118 -3.415,0.224l-0.08 9.549 1.926 0c12.728,0 22.08,1.649 28.055,4.92 5.975,3.284 8.956,8.416 8.956,15.393 0,6.542 -2.335,11.62 -6.991,15.247 -4.669,3.614 -11.251,5.421 -19.745,5.421 -9.22,0 -16.395,-1.688 -21.526,-5.051 -5.131,-3.364 -7.69,-8.046 -7.69,-14.061 0,-0.25 0.014,-0.501 0.027,-0.725 0.013,-0.238 0.026,-0.475 0.052,-0.739z"/>
  <path id="_3" class="fil0" d="M477.242 228.502l0 1.016c0,6.964 -2.374,12.649 -7.123,17.015 -4.761,4.379 -10.987,6.568 -18.689,6.568 -9.115,0 -16.356,-2.769 -21.711,-8.309 -5.355,-5.54 -8.033,-13.006 -8.033,-22.41 0,-9.523 2.691,-17.173 8.073,-22.924 5.381,-5.764 12.53,-8.639 21.446,-8.639 7.914,0 14.258,2.031 19.073,6.08 4.801,4.063 7.202,9.418 7.202,16.066 0,0.25 -0.014,0.554 -0.04,0.883 -0.026,0.343 -0.079,0.871 -0.158,1.583 -1.056,0.053 -2.216,0.093 -3.495,0.119 -1.28,0.026 -2.612,0.039 -3.997,0.039 -1.622,0 -3.324,-0.026 -5.091,-0.092 -1.768,-0.066 -3.654,-0.171 -5.659,-0.29l-0.739 -11.805 -15.814 0 -0.699 21.539 0.461 12.966 18.703 0 0.937 -10.367 15.353 0.962z"/>
  <path id="_4" class="fil0" d="M485.882 192.085l17.964 1.108 0.079 17.332 1.425 27.461 15.775 0.237 0.765 -26.419 -1.346 -18.268 15.01 -0.581 0.343 15.908c0.079,3.891 0.146,7.188 0.185,9.879 0.04,2.69 0.053,4.774 0.053,6.278 0,5.896 -0.383,10.328 -1.161,13.309 -0.765,2.967 -2.071,5.434 -3.904,7.399 -2.229,2.441 -4.959,4.287 -8.178,5.514 -3.232,1.24 -6.885,1.859 -10.974,1.859 -5.724,0 -10.512,-0.962 -14.377,-2.901 -3.851,-1.926 -6.687,-4.762 -8.494,-8.495 -0.976,-2.057 -1.728,-5.302 -2.242,-9.734 -0.515,-4.431 -0.792,-10.063 -0.844,-16.883l-0.079 -23.003z"/>
  <path id="_5" class="fil0" d="M545.156 232.525l18.599 0.858c0,1.081 0.025,2.136 0.079,3.152 0.052,1.029 0.144,2.031 0.264,3.007l17.7 0.818c0.026,-0.237 0.039,-0.554 0.039,-0.963 0.079,-2.255 0.12,-3.799 0.12,-4.656 0,-0.435 -0.014,-1.068 -0.054,-1.913 -0.039,-0.844 -0.105,-1.912 -0.184,-3.231 -2.19,-0.264 -5.289,-0.514 -9.312,-0.778 -8.89,-0.593 -14.984,-1.741 -18.282,-3.429 -3.046,-1.544 -5.328,-3.681 -6.845,-6.397 -1.517,-2.718 -2.282,-5.989 -2.282,-9.827 0,-6.542 2.203,-11.238 6.621,-14.074 4.419,-2.849 11.806,-4.273 22.173,-4.273 7.623,0 13.493,1.424 17.635,4.273 4.128,2.849 6.199,6.886 6.199,12.122 0,0.343 -0.013,0.699 -0.039,1.081 -0.027,0.396 -0.067,0.845 -0.12,1.359l-18.043 -0.62 0.316 -6.001c-1.727,-0.264 -3.522,-0.448 -5.368,-0.568 -1.86,-0.118 -3.812,-0.171 -5.869,-0.171 -0.897,0 -1.874,0.013 -2.915,0.053 -1.042,0.039 -2.176,0.118 -3.416,0.224l-0.08 9.549 1.926 0c12.728,0 22.08,1.649 28.055,4.92 5.975,3.284 8.956,8.416 8.956,15.393 0,6.542 -2.335,11.62 -6.991,15.247 -4.669,3.614 -11.251,5.421 -19.745,5.421 -9.22,0 -16.395,-1.688 -21.526,-5.051 -5.131,-3.364 -7.69,-8.046 -7.69,-14.061 0,-0.25 0.014,-0.501 0.027,-0.725 0.013,-0.238 0.026,-0.475 0.052,-0.739z"/>
  <path id="_6" class="fil0" d="M607.452 232.525l18.598 0.858c0,1.081 0.026,2.136 0.079,3.152 0.053,1.029 0.145,2.031 0.264,3.007l17.7 0.818c0.027,-0.237 0.04,-0.554 0.04,-0.963 0.079,-2.255 0.119,-3.799 0.119,-4.656 0,-0.435 -0.013,-1.068 -0.053,-1.913 -0.04,-0.844 -0.106,-1.912 -0.185,-3.231 -2.189,-0.264 -5.289,-0.514 -9.312,-0.778 -8.89,-0.593 -14.983,-1.741 -18.281,-3.429 -3.047,-1.544 -5.329,-3.681 -6.845,-6.397 -1.517,-2.718 -2.282,-5.989 -2.282,-9.827 0,-6.542 2.203,-11.238 6.621,-14.074 4.419,-2.849 11.805,-4.273 22.172,-4.273 7.624,0 13.494,1.424 17.635,4.273 4.129,2.849 6.2,6.886 6.2,12.122 0,0.343 -0.014,0.699 -0.04,1.081 -0.026,0.396 -0.066,0.845 -0.119,1.359l-18.043 -0.62 0.316 -6.001c-1.728,-0.264 -3.522,-0.448 -5.369,-0.568 -1.859,-0.118 -3.811,-0.171 -5.869,-0.171 -0.897,0 -1.873,0.013 -2.915,0.053 -1.042,0.039 -2.176,0.118 -3.416,0.224l-0.079 9.549 1.925 0c12.729,0 22.08,1.649 28.055,4.92 5.976,3.284 8.956,8.416 8.956,15.393 0,6.542 -2.334,11.62 -6.99,15.247 -4.669,3.614 -11.251,5.421 -19.746,5.421 -9.219,0 -16.395,-1.688 -21.525,-5.051 -5.131,-3.364 -7.69,-8.046 -7.69,-14.061 0,-0.25 0.013,-0.501 0.026,-0.725 0.013,-0.238 0.027,-0.475 0.053,-0.739z"/>
  <polygon id="_7" class="fil0" points="671.951,222.409 671.41,192.718 689.137,193.101 688.596,219.968 689.137,250.806 671.41,251.123 "/>
  <path id="_8" class="fil0" d="M716.77 238.17c3.165,0.33 6.331,0.581 9.483,0.753 3.153,0.171 6.318,0.25 9.484,0.25l1.2 -32.632 -21.209 -0.844 0 17.74 1.042 14.733zm11.396 14.931c-9.669,0 -17.213,-2.875 -22.647,-8.613 -5.434,-5.75 -8.152,-13.717 -8.152,-23.913 0,-4.485 0.356,-8.322 1.082,-11.514 0.725,-3.205 1.82,-5.725 3.284,-7.585 2.81,-3.574 6.279,-6.252 10.394,-8.006 4.128,-1.767 8.995,-2.651 14.601,-2.651 8.943,0 15.867,2.545 20.787,7.637 4.92,5.078 7.387,12.279 7.387,21.579 0,5.17 -0.752,9.839 -2.242,13.994 -1.491,4.168 -3.76,7.874 -6.794,11.158 -2.664,2.823 -5.342,4.854 -8.058,6.081 -2.718,1.227 -5.936,1.833 -9.642,1.833z"/>
  <path id="_9" class="fil0" d="M762.67 251.044c0.409,-9.919 0.726,-19.732 0.95,-29.427 0.211,-9.707 0.356,-19.31 0.395,-28.82l18.677 0 17.886 28.556c0.541,0.897 1.214,2.282 2.018,4.129 0.791,1.86 1.569,3.891 2.321,6.107 0,-1.267 0.013,-2.783 0.04,-4.577 0.027,-1.794 0.04,-2.928 0.04,-3.417 0,-3.151 -0.067,-6.964 -0.185,-11.435 -0.106,-4.484 -0.304,-10.407 -0.594,-17.78l12.979 0.159 -0.303 33.159 -0.238 23.346c-2.11,-0.106 -4.023,-0.185 -5.737,-0.238 -1.715,-0.052 -3.073,-0.079 -4.076,-0.079 -0.567,0 -1.873,0.027 -3.904,0.079 -1.517,0.053 -2.731,0.079 -3.627,0.079l-1.042 -1.582c-12.122,-18.044 -19.429,-30.851 -21.922,-38.462l-0.699 40.203 -12.979 0z"/>
  <line class="fil3 str0" x1="273.278" y1="284.19" x2="814.956" y2= "284.19" />
  <path class="fil4" d="M79.27 278.561l0 -4.426c4.012,-2.301 6.845,-4.042 8.527,-5.192 0.796,-10.12 1.209,-29.061 1.209,-56.853 0,-12.009 -0.118,-22.069 -0.383,-30.153 -0.266,-8.084 -0.649,-12.687 -1.151,-13.837 -0.236,-0.561 -0.59,-1.003 -1.121,-1.299 -0.855,-0.442 -5.045,-1.15 -12.569,-2.065l0 -7.434c8.704,0.354 18.676,0.53 29.976,0.53l42.544 -0.53c15.49,0 27.261,1.946 35.286,5.87 8.025,3.925 14.398,9.914 19.119,17.998 4.72,8.054 7.08,17.849 7.08,29.356 0,14.81 -3.688,27.585 -11.063,38.295 -7.376,10.74 -16.375,18.352 -26.996,22.925 -10.592,4.543 -21.921,6.815 -33.988,6.815l-32.779 -0.531c-5.251,0 -13.129,0.177 -23.691,0.531zm35.05 -10.621c4.868,0.826 9.825,1.239 14.899,1.239 12.894,0 22.718,-1.83 29.475,-5.517 6.756,-3.688 12.243,-9.707 16.433,-18.086 4.19,-8.349 6.284,-18.646 6.284,-30.831 0,-16.05 -4.16,-28.265 -12.48,-36.673 -7.346,-7.465 -19.325,-11.212 -35.965,-11.212 -3.599,0 -9.795,0.296 -18.646,0.886l-0.708 53.814c0,22.63 0.236,38.089 0.708,46.38z"/>
 </g>
</svg>
