<?xml version="1.0" encoding="UTF-8"?>
<!DOCTYPE svg PUBLIC "-//W3C//DTD SVG 1.1//EN" "http://www.w3.org/Graphics/SVG/1.1/DTD/svg11.dtd">
<!-- Creator: CorelDRAW Standard 2024 -->
<svg xmlns="http://www.w3.org/2000/svg" xml:space="preserve" width="856px" height="472px" version="1.1" style="shape-rendering:geometricPrecision; text-rendering:geometricPrecision; image-rendering:optimizeQuality; fill-rule:evenodd; clip-rule:evenodd"
viewBox="0 0 856 472.276"
 xmlns:xlink="http://www.w3.org/1999/xlink"
 xmlns:xodm="http://www.corel.com/coreldraw/odm/2003">
 <defs>
  <style type="text/css">
   <![CDATA[
    .str0 {stroke:#3A7CD5;stroke-width:4.686;stroke-miterlimit:22.9256}
    .fil3 {fill:none;fill-rule:nonzero}
    .fil0 {fill:#1E5AAA;fill-rule:nonzero}
    .fil1 {fill:#3A7CD5;fill-rule:nonzero}
    .fil2 {fill:#5B9AE5;fill-rule:nonzero}
    .fil4 {fill:white;fill-rule:nonzero}
   ]]>
  </style>
 </defs>
 <g id="Vrstva_x0020_1">
  <metadata id="CorelCorpID_0Corel-Layer"/>
  <circle class="fil0" cx="133.862" cy="216.144" r="116.363"/>
  <ellipse class="fil1" cx="135.097" cy="216.799" rx="95.6" ry="97.341"/>
  <circle class="fil2" cx="134.563" cy="238.831" r="73.466"/>
  <path class="fil0" d="M296.155 173.86l1.121 -23.993 21.737 0.159 8.666 38.791 6.067 -28.094 2.545 -10.856 21.473 0.383c0,0.079 -0.013,0.765 -0.039,2.045 -0.026,1.292 -0.04,2.571 -0.04,3.825 0,8.757 0.066,17.437 0.225,26.023 0.158,8.587 0.395,17.081 0.699,25.483 -0.33,0 -0.831,-0.013 -1.465,-0.04 -0.646,-0.026 -1.108,-0.039 -1.358,-0.039 -0.62,0 -2.321,-0.079 -5.131,-0.237 -2.796,-0.146 -5.289,-0.251 -7.479,-0.304 0.106,-1.214 0.185,-2.269 0.238,-3.165 0.039,-0.898 0.066,-1.504 0.066,-1.821 0,-1.107 0.092,-5.078 0.277,-11.91 0.184,-6.846 0.277,-13.111 0.277,-18.795 0,-1.056 -0.026,-2.164 -0.079,-3.325 -0.053,-1.16 -0.159,-2.479 -0.317,-3.943l-5.83 25.614 -5.223 17.345 -14.654 0 -9.826 -40.836 -0.304 42.34 -13.453 -0.581 1.807 -34.069z"/>
  <path id="_1" class="fil0" d="M379.593 208.272c0.33,-4.062 0.581,-7.848 0.753,-11.343 0.171,-3.482 0.25,-6.384 0.25,-8.705 0,-0.647 -0.04,-1.755 -0.119,-3.324 0,-0.356 -0.013,-0.646 -0.039,-0.844l-16.857 -35.771 18.439 -0.159 6.648 16.844c0.158,0.409 0.396,1.2 0.726,2.348 0.316,1.134 0.685,2.493 1.094,4.076l9.814 -23.505 14.245 1.2 -17.411 36.167 0.739 24.678c-3.258,-0.409 -6.397,-0.752 -9.458,-1.029 -3.046,-0.264 -5.987,-0.474 -8.824,-0.633z"/>
  <path class="fil0" d="M312.658 285.167l16.606 0 0.805 -29.77 -17.331 -0.541 0.079 9.629 -0.159 20.682zm-16.382 -11.238l-0.632 -32.276c4.114,-0.329 7.94,-0.58 11.448,-0.726 3.522,-0.158 6.74,-0.237 9.682,-0.237 6.753,0 12.121,0.752 16.131,2.242 3.996,1.491 7.478,3.971 10.446,7.413 2.084,2.427 3.588,4.854 4.498,7.307 0.91,2.44 1.371,5.25 1.371,8.415 0,11.884 -2.73,20.418 -8.204,25.615 -5.473,5.21 -14.561,7.809 -27.25,7.809 -2.295,0 -4.893,-0.079 -7.808,-0.251 -2.915,-0.158 -6.344,-0.422 -10.314,-0.778l0.632 -24.533z"/>
  <polygon id="_1_2" class="fil0" points="357.979,270.539 357.438,240.848 375.165,241.231 374.624,268.099 375.165,298.936 357.438,299.253 "/>
  <path id="_2" class="fil0" d="M383.791 280.655l18.598 0.858c0,1.082 0.026,2.136 0.079,3.152 0.053,1.029 0.145,2.031 0.264,3.008l17.7 0.817c0.027,-0.237 0.04,-0.553 0.04,-0.963 0.079,-2.255 0.119,-3.798 0.119,-4.656 0,-0.435 -0.013,-1.068 -0.053,-1.912 -0.04,-0.845 -0.106,-1.912 -0.185,-3.232 -2.189,-0.264 -5.289,-0.514 -9.312,-0.778 -8.89,-0.593 -14.983,-1.741 -18.281,-3.429 -3.047,-1.543 -5.328,-3.68 -6.845,-6.397 -1.517,-2.718 -2.282,-5.989 -2.282,-9.827 0,-6.542 2.203,-11.237 6.621,-14.073 4.419,-2.849 11.805,-4.274 22.172,-4.274 7.624,0 13.494,1.425 17.635,4.274 4.129,2.849 6.2,6.885 6.2,12.121 0,0.343 -0.014,0.699 -0.04,1.082 -0.026,0.395 -0.066,0.844 -0.119,1.358l-18.043 -0.62 0.316 -6.001c-1.728,-0.264 -3.522,-0.448 -5.369,-0.568 -1.859,-0.118 -3.811,-0.171 -5.869,-0.171 -0.897,0 -1.873,0.013 -2.915,0.053 -1.042,0.039 -2.176,0.118 -3.416,0.224l-0.079 9.55 1.925 0c12.729,0 22.08,1.648 28.055,4.919 5.976,3.285 8.956,8.416 8.956,15.393 0,6.542 -2.334,11.62 -6.99,15.248 -4.669,3.614 -11.251,5.421 -19.746,5.421 -9.219,0 -16.395,-1.689 -21.525,-5.052 -5.131,-3.364 -7.69,-8.046 -7.69,-14.061 0,-0.25 0.013,-0.501 0.026,-0.725 0.013,-0.238 0.027,-0.475 0.053,-0.739z"/>
  <path id="_3" class="fil0" d="M501.246 276.633l0 1.015c0,6.964 -2.373,12.649 -7.122,17.015 -4.761,4.379 -10.987,6.569 -18.69,6.569 -9.114,0 -16.355,-2.77 -21.71,-8.31 -5.355,-5.54 -8.033,-13.005 -8.033,-22.409 0,-9.524 2.691,-17.174 8.072,-22.925 5.382,-5.763 12.53,-8.639 21.447,-8.639 7.914,0 14.258,2.032 19.073,6.081 4.8,4.062 7.201,9.417 7.201,16.065 0,0.251 -0.013,0.554 -0.039,0.884 -0.027,0.342 -0.079,0.87 -0.158,1.582 -1.056,0.053 -2.217,0.093 -3.496,0.119 -1.28,0.026 -2.612,0.039 -3.996,0.039 -1.623,0 -3.324,-0.026 -5.092,-0.092 -1.767,-0.066 -3.653,-0.171 -5.658,-0.29l-0.739 -11.805 -15.814 0 -0.7 21.539 0.462 12.966 18.703 0 0.937 -10.367 15.352 0.963z"/>
  <path id="_4" class="fil0" d="M509.886 240.215l17.965 1.109 0.079 17.331 1.425 27.461 15.774 0.237 0.765 -26.419 -1.345 -18.268 15.01 -0.58 0.343 15.907c0.079,3.891 0.145,7.188 0.185,9.879 0.039,2.691 0.052,4.775 0.052,6.278 0,5.897 -0.382,10.328 -1.16,13.309 -0.765,2.968 -2.071,5.434 -3.904,7.399 -2.229,2.441 -4.96,4.287 -8.178,5.514 -3.232,1.24 -6.886,1.86 -10.974,1.86 -5.724,0 -10.513,-0.963 -14.377,-2.902 -3.851,-1.926 -6.687,-4.762 -8.494,-8.494 -0.976,-2.058 -1.728,-5.303 -2.243,-9.734 -0.514,-4.432 -0.791,-10.064 -0.844,-16.884l-0.079 -23.003z"/>
  <path id="_5" class="fil0" d="M569.161 280.655l18.598 0.858c0,1.082 0.026,2.136 0.079,3.152 0.053,1.029 0.145,2.031 0.264,3.008l17.7 0.817c0.027,-0.237 0.04,-0.553 0.04,-0.963 0.079,-2.255 0.119,-3.798 0.119,-4.656 0,-0.435 -0.013,-1.068 -0.053,-1.912 -0.039,-0.845 -0.106,-1.912 -0.185,-3.232 -2.189,-0.264 -5.289,-0.514 -9.312,-0.778 -8.89,-0.593 -14.983,-1.741 -18.281,-3.429 -3.047,-1.543 -5.328,-3.68 -6.845,-6.397 -1.517,-2.718 -2.282,-5.989 -2.282,-9.827 0,-6.542 2.203,-11.237 6.621,-14.073 4.419,-2.849 11.805,-4.274 22.172,-4.274 7.624,0 13.494,1.425 17.636,4.274 4.128,2.849 6.199,6.885 6.199,12.121 0,0.343 -0.014,0.699 -0.04,1.082 -0.026,0.395 -0.066,0.844 -0.119,1.358l-18.043 -0.62 0.316 -6.001c-1.728,-0.264 -3.522,-0.448 -5.369,-0.568 -1.859,-0.118 -3.811,-0.171 -5.869,-0.171 -0.896,0 -1.873,0.013 -2.915,0.053 -1.042,0.039 -2.176,0.118 -3.416,0.224l-0.079 9.55 1.925 0c12.729,0 22.08,1.648 28.055,4.919 5.976,3.285 8.956,8.416 8.956,15.393 0,6.542 -2.334,11.62 -6.99,15.248 -4.669,3.614 -11.251,5.421 -19.746,5.421 -9.219,0 -16.395,-1.689 -21.525,-5.052 -5.131,-3.364 -7.69,-8.046 -7.69,-14.061 0,-0.25 0.013,-0.501 0.026,-0.725 0.013,-0.238 0.027,-0.475 0.053,-0.739z"/>
  <path id="_6" class="fil0" d="M631.456 280.655l18.599 0.858c0,1.082 0.026,2.136 0.079,3.152 0.052,1.029 0.144,2.031 0.264,3.008l17.7 0.817c0.027,-0.237 0.04,-0.553 0.04,-0.963 0.079,-2.255 0.119,-3.798 0.119,-4.656 0,-0.435 -0.014,-1.068 -0.053,-1.912 -0.04,-0.845 -0.106,-1.912 -0.185,-3.232 -2.19,-0.264 -5.289,-0.514 -9.312,-0.778 -8.89,-0.593 -14.984,-1.741 -18.281,-3.429 -3.047,-1.543 -5.329,-3.68 -6.845,-6.397 -1.518,-2.718 -2.283,-5.989 -2.283,-9.827 0,-6.542 2.203,-11.237 6.622,-14.073 4.418,-2.849 11.805,-4.274 22.172,-4.274 7.623,0 13.493,1.425 17.635,4.274 4.128,2.849 6.199,6.885 6.199,12.121 0,0.343 -0.013,0.699 -0.039,1.082 -0.027,0.395 -0.066,0.844 -0.12,1.358l-18.043 -0.62 0.317 -6.001c-1.728,-0.264 -3.522,-0.448 -5.369,-0.568 -1.86,-0.118 -3.812,-0.171 -5.869,-0.171 -0.897,0 -1.873,0.013 -2.915,0.053 -1.042,0.039 -2.176,0.118 -3.416,0.224l-0.08 9.55 1.926 0c12.728,0 22.08,1.648 28.055,4.919 5.975,3.285 8.956,8.416 8.956,15.393 0,6.542 -2.335,11.62 -6.991,15.248 -4.669,3.614 -11.251,5.421 -19.745,5.421 -9.22,0 -16.395,-1.689 -21.526,-5.052 -5.131,-3.364 -7.69,-8.046 -7.69,-14.061 0,-0.25 0.014,-0.501 0.027,-0.725 0.013,-0.238 0.026,-0.475 0.052,-0.739z"/>
  <polygon id="_7" class="fil0" points="695.955,270.539 695.414,240.848 713.141,241.231 712.601,268.099 713.141,298.936 695.414,299.253 "/>
  <path id="_8" class="fil0" d="M740.774 286.301c3.166,0.33 6.332,0.58 9.484,0.752 3.152,0.171 6.318,0.25 9.483,0.25l1.2 -32.632 -21.209 -0.844 0 17.74 1.042 14.734zm11.396 14.931c-9.668,0 -17.213,-2.876 -22.647,-8.613 -5.434,-5.751 -8.151,-13.718 -8.151,-23.914 0,-4.484 0.356,-8.322 1.081,-11.514 0.726,-3.205 1.821,-5.725 3.285,-7.584 2.81,-3.575 6.278,-6.253 10.394,-8.007 4.128,-1.767 8.995,-2.651 14.601,-2.651 8.942,0 15.867,2.546 20.787,7.637 4.92,5.078 7.386,12.28 7.386,21.579 0,5.17 -0.752,9.84 -2.242,13.994 -1.49,4.168 -3.759,7.874 -6.793,11.159 -2.664,2.823 -5.342,4.853 -8.059,6.08 -2.717,1.227 -5.935,1.834 -9.642,1.834z"/>
  <path id="_9" class="fil0" d="M786.675 299.174c0.409,-9.919 0.725,-19.732 0.949,-29.427 0.211,-9.707 0.356,-19.31 0.396,-28.82l18.677 0 17.885 28.557c0.541,0.896 1.214,2.281 2.019,4.128 0.791,1.86 1.569,3.891 2.321,6.107 0,-1.266 0.013,-2.783 0.04,-4.577 0.026,-1.793 0.039,-2.928 0.039,-3.416 0,-3.152 -0.066,-6.965 -0.185,-11.436 -0.105,-4.484 -0.303,-10.406 -0.593,-17.78l12.979 0.159 -0.304 33.159 -0.237 23.346c-2.11,-0.105 -4.023,-0.184 -5.737,-0.238 -1.715,-0.052 -3.074,-0.079 -4.076,-0.079 -0.568,0 -1.873,0.027 -3.905,0.079 -1.516,0.054 -2.73,0.08 -3.627,0.08l-1.042 -1.583c-12.121,-18.043 -19.429,-30.851 -21.921,-38.462l-0.7 40.203 -12.978 0z"/>
  <line class="fil3 str0" x1="296.435" y1="336.813" x2="838.113" y2= "336.813" />
  <path class="fil4" d="M43.51 239.233l0 -4.416 3.219 -0.22c2.612,-0.147 4.231,-0.607 4.894,-1.38 0.661,-0.755 1.048,-3.349 1.159,-7.782 0.22,-8.867 0.331,-18.488 0.331,-28.827 0,-5.5 -0.019,-11.755 -0.056,-18.764 -0.036,-4.231 -0.275,-6.825 -0.699,-7.763 -0.221,-0.46 -0.607,-0.846 -1.196,-1.123 -0.57,-0.294 -3.127,-0.588 -7.652,-0.919l0 -4.415c4.341,0.073 8.591,0.11 12.748,0.11 4.839,0 9.493,-0.037 13.981,-0.11 1.932,4.562 3.937,9.087 6.016,13.576 1.472,3.183 7.984,16.741 19.518,40.656 12.271,-24.559 20.844,-42.643 25.755,-54.232 4.323,0.22 8.407,0.331 12.308,0.331 4.562,0 8.958,-0.111 13.208,-0.331l0 4.415c-4.764,0.294 -7.45,0.717 -8.076,1.251 -0.607,0.552 -1.011,2.226 -1.196,5.04 -0.22,4.526 -0.331,13.135 -0.331,25.81 0,6.384 0.056,13.153 0.166,20.255 0.11,7.119 0.35,11.148 0.717,12.105 0.258,0.551 0.607,0.974 1.086,1.269 0.478,0.294 3.017,0.643 7.634,1.048l0 4.416c-5.813,-0.221 -11.019,-0.332 -15.581,-0.332 -4.6,0 -10.836,0.111 -18.746,0.332l0 -4.416 3.145 -0.11c2.484,-0.11 4.048,-0.46 4.655,-1.049 0.625,-0.607 1.03,-2.17 1.214,-4.728 0.165,-2.556 0.257,-8.535 0.257,-17.954l0 -32.543c-5.555,11.13 -12.638,25.718 -21.266,43.746 -3.532,7.432 -6.291,13.466 -8.278,18.157l-3.496 0c-2.704,-6.199 -6.309,-14.018 -10.816,-23.492l-18.618 -38.411 0 7.321c0,20.273 0.074,34.236 0.221,41.889 0.111,3.109 0.516,5.04 1.233,5.758 0.717,0.736 3.403,1.196 8.039,1.416l0 4.416c-3.642,-0.221 -7.304,-0.332 -10.946,-0.332 -5.445,0 -10.283,0.111 -14.551,0.332z"/>
  <path class="fil4" d="M145.403 274.184l0 -2.759c2.501,-1.435 4.268,-2.521 5.316,-3.238 0.497,-6.309 0.755,-18.12 0.755,-35.449 0,-7.488 -0.074,-13.761 -0.24,-18.802 -0.165,-5.04 -0.404,-7.91 -0.717,-8.628 -0.147,-0.349 -0.368,-0.625 -0.699,-0.809 -0.534,-0.276 -3.146,-0.717 -7.837,-1.288l0 -4.636c5.427,0.221 11.644,0.332 18.691,0.332l26.527 -0.332c9.658,0 16.998,1.215 22.002,3.661 5.004,2.447 8.977,6.182 11.921,11.222 2.943,5.022 4.415,11.13 4.415,18.304 0,9.236 -2.3,17.201 -6.899,23.879 -4.599,6.696 -10.21,11.442 -16.832,14.294 -6.604,2.833 -13.669,4.249 -21.193,4.249l-20.438 -0.331c-3.275,0 -8.187,0.111 -14.772,0.331zm21.855 -6.622c3.035,0.515 6.125,0.772 9.289,0.772 8.04,0 14.166,-1.14 18.378,-3.44 4.213,-2.299 7.635,-6.052 10.247,-11.277 2.612,-5.206 3.919,-11.626 3.919,-19.224 0,-10.008 -2.594,-17.624 -7.782,-22.867 -4.581,-4.654 -12.05,-6.99 -22.425,-6.99 -2.245,0 -6.108,0.184 -11.626,0.552l-0.442 33.555c0,14.11 0.147,23.749 0.442,28.919z"/>
 </g>
</svg>
