<?xml version="1.0" encoding="UTF-8"?>
<!DOCTYPE svg PUBLIC "-//W3C//DTD SVG 1.1//EN" "http://www.w3.org/Graphics/SVG/1.1/DTD/svg11.dtd">
<!-- Creator: CorelDRAW Standard 2024 -->
<svg xmlns="http://www.w3.org/2000/svg" xml:space="preserve" width="200px" height="110px" version="1.1" style="shape-rendering:geometricPrecision; text-rendering:geometricPrecision; image-rendering:optimizeQuality; fill-rule:evenodd; clip-rule:evenodd"
viewBox="0 0 200 110.345"
 xmlns:xlink="http://www.w3.org/1999/xlink"
 xmlns:xodm="http://www.corel.com/coreldraw/odm/2003">
 <defs>
  <style type="text/css">
   <![CDATA[
    .str0 {stroke:#3A7CD5;stroke-width:1.095;stroke-miterlimit:22.9256}
    .fil3 {fill:none;fill-rule:nonzero}
    .fil0 {fill:#1E5AAA;fill-rule:nonzero}
    .fil1 {fill:#3A7CD5;fill-rule:nonzero}
    .fil2 {fill:#5B9AE5;fill-rule:nonzero}
   ]]>
  </style>
 </defs>
 <g id="Vrstva_x0020_1">
  <metadata id="CorelCorpID_0Corel-Layer"/>
  <circle class="fil0" cx="31.276" cy="50.501" r="27.188"/>
  <ellipse class="fil1" cx="31.423" cy="51.066" rx="21.678" ry="22.073"/>
  <circle class="fil2" cx="31.613" cy="55.974" r="16.992"/>
  <polygon class="fil0" points="78.78,30.391 78.78,31.849 73.516,31.849 73.516,36.699 77.997,36.699 77.997,38.156 73.516,38.156 73.516,44.899 69.319,44.899 69.319,30.391 "/>
  <path id="_1" class="fil0" d="M80.205 44.899l0 -14.508 6.227 0c1.621,0 2.918,0.341 3.886,1.026 0.972,0.685 1.458,1.602 1.458,2.755 0,1.758 -1.041,2.907 -3.125,3.437 1.069,0.398 1.762,0.833 2.077,1.305 0.315,0.475 0.529,1.395 0.642,2.758 0.134,1.628 0.406,2.705 0.815,3.227l-4.564 0c-0.29,-0.671 -0.435,-1.512 -0.435,-2.516l-0.021 -0.859 -0.022 -1.081c0,-1.671 -0.674,-2.504 -2.019,-2.504l-0.722 0 0 6.96 -4.197 0zm4.197 -8.157l0.849 0c1.595,0 2.392,-0.833 2.392,-2.501 0,-1.667 -0.797,-2.501 -2.392,-2.501l-0.849 0 0 5.002z"/>
  <polygon id="_2" class="fil0" points="103.321,30.391 103.321,31.849 98.123,31.849 98.123,36.242 102.495,36.242 102.495,37.699 98.123,37.699 98.123,43.441 104.213,43.441 104.213,44.899 93.925,44.899 93.925,30.391 "/>
  <polygon id="_3" class="fil0" points="114.907,30.391 114.907,31.849 109.709,31.849 109.709,36.242 114.08,36.242 114.08,37.699 109.709,37.699 109.709,43.441 115.799,43.441 115.799,44.899 105.511,44.899 105.511,30.391 "/>
  <path class="fil0" d="M69.154 70.795l0 -14.508 6.003 0c4.263,0 6.394,2.422 6.394,7.269 0,4.825 -2.207,7.239 -6.626,7.239l-5.771 0zm4.197 -1.197l1.106 0c1.008,0 1.707,-0.438 2.095,-1.312 0.388,-0.877 0.584,-2.461 0.584,-4.752 0,-2.288 -0.192,-3.872 -0.576,-4.742 -0.385,-0.873 -1.088,-1.308 -2.103,-1.308l-1.106 0 0 12.114z"/>
  <polygon id="_1_0" class="fil0" points="87.627,56.287 87.627,70.795 83.429,70.795 83.429,56.287 "/>
  <path id="_2_1" class="fil0" d="M99.625 60.358l-1.953 0.363c0.083,-0.392 0.123,-0.718 0.123,-0.983 0,-1.692 -1.022,-2.537 -3.063,-2.537 -1.614,0 -2.418,0.58 -2.418,1.744 0,0.87 0.902,1.616 2.704,2.24 3.476,1.196 5.213,2.969 5.213,5.314 0,1.374 -0.49,2.476 -1.465,3.31 -0.978,0.83 -2.276,1.247 -3.897,1.247 -3.588,0 -5.383,-1.389 -5.383,-4.169 0,-0.225 0.022,-0.504 0.062,-0.837l2.026 -0.446c-0.159,0.616 -0.239,1.149 -0.239,1.602 0,1.798 1.03,2.697 3.092,2.697 1.65,0 2.476,-0.649 2.476,-1.943 0,-0.964 -0.986,-1.813 -2.962,-2.541 -2.852,-1.048 -4.281,-2.722 -4.281,-5.024 0,-1.305 0.475,-2.353 1.429,-3.151 0.953,-0.797 2.204,-1.196 3.755,-1.196 3.186,0 4.781,1.436 4.781,4.31z"/>
  <path id="_3_2" class="fil0" d="M111.689 64.977l1.795 0.467c0.036,0.366 0.054,0.685 0.054,0.954 0,1.41 -0.511,2.533 -1.53,3.375 -1.022,0.841 -2.392,1.261 -4.107,1.261 -4.303,0 -6.456,-2.418 -6.456,-7.25 0,-2.291 0.627,-4.151 1.881,-5.575 1.255,-1.425 2.886,-2.139 4.898,-2.139 3.139,0 4.709,1.508 4.709,4.524l-1.805 0.826c0.025,-0.424 0.039,-0.754 0.039,-0.989 0,-2.139 -0.859,-3.208 -2.577,-3.208 -1.82,0 -2.73,2.269 -2.73,6.807 0,3.901 1.015,5.851 3.049,5.851 0.841,0 1.537,-0.333 2.095,-0.997 0.558,-0.667 0.838,-1.497 0.838,-2.494 0,-0.319 -0.051,-0.79 -0.153,-1.413z"/>
  <path id="_4" class="fil0" d="M126.026 56.287l0 9.741c0,3.338 -1.845,5.006 -5.535,5.006 -3.676,0 -5.514,-1.668 -5.514,-5.006l0 -9.741 4.198 0 0 9.868c0,1.276 0.181,2.146 0.547,2.613 0.367,0.468 1.041,0.7 2.027,0.7 1.91,0 2.864,-1.146 2.864,-3.44l0 -9.741 1.413 0z"/>
  <path id="_5" class="fil0" d="M137.775 60.358l-1.954 0.363c0.083,-0.392 0.123,-0.718 0.123,-0.983 0,-1.692 -1.022,-2.537 -3.063,-2.537 -1.613,0 -2.418,0.58 -2.418,1.744 0,0.87 0.903,1.616 2.705,2.24 3.476,1.196 5.212,2.969 5.212,5.314 0,1.374 -0.489,2.476 -1.464,3.31 -0.979,0.83 -2.277,1.247 -3.897,1.247 -3.589,0 -5.383,-1.389 -5.383,-4.169 0,-0.225 0.022,-0.504 0.061,-0.837l2.027 -0.446c-0.16,0.616 -0.239,1.149 -0.239,1.602 0,1.798 1.029,2.697 3.092,2.697 1.649,0 2.476,-0.649 2.476,-1.943 0,-0.964 -0.986,-1.813 -2.962,-2.541 -2.853,-1.048 -4.281,-2.722 -4.281,-5.024 0,-1.305 0.475,-2.353 1.428,-3.151 0.953,-0.797 2.204,-1.196 3.756,-1.196 3.186,0 4.781,1.436 4.781,4.31z"/>
  <path id="_6" class="fil0" d="M149.712 60.358l-1.954 0.363c0.084,-0.392 0.123,-0.718 0.123,-0.983 0,-1.692 -1.022,-2.537 -3.063,-2.537 -1.613,0 -2.418,0.58 -2.418,1.744 0,0.87 0.903,1.616 2.705,2.24 3.476,1.196 5.212,2.969 5.212,5.314 0,1.374 -0.489,2.476 -1.464,3.31 -0.979,0.83 -2.277,1.247 -3.897,1.247 -3.589,0 -5.383,-1.389 -5.383,-4.169 0,-0.225 0.022,-0.504 0.061,-0.837l2.027 -0.446c-0.16,0.616 -0.239,1.149 -0.239,1.602 0,1.798 1.029,2.697 3.092,2.697 1.649,0 2.476,-0.649 2.476,-1.943 0,-0.964 -0.986,-1.813 -2.962,-2.541 -2.853,-1.048 -4.281,-2.722 -4.281,-5.024 0,-1.305 0.475,-2.353 1.428,-3.151 0.954,-0.797 2.204,-1.196 3.756,-1.196 3.186,0 4.781,1.436 4.781,4.31z"/>
  <polygon id="_7" class="fil0" points="156.382,56.287 156.382,70.795 152.184,70.795 152.184,56.287 "/>
  <path id="_8" class="fil0" d="M164.828 56.048c4.223,0 6.333,2.498 6.333,7.493 0,4.995 -2.15,7.493 -6.449,7.493 -4.299,0 -6.449,-2.556 -6.449,-7.663 0,-4.883 2.19,-7.323 6.565,-7.323zm-0.116 1.153c-0.794,0 -1.334,0.439 -1.613,1.312 -0.279,0.874 -0.42,2.549 -0.42,5.028 0,2.48 0.141,4.154 0.42,5.028 0.279,0.874 0.819,1.312 1.613,1.312 0.794,0 1.334,-0.438 1.613,-1.312 0.28,-0.874 0.421,-2.548 0.421,-5.028 0,-2.472 -0.141,-4.147 -0.421,-5.024 -0.279,-0.877 -0.819,-1.316 -1.613,-1.316z"/>
  <polygon id="_9" class="fil0" points="183.624,56.287 183.624,70.795 180.405,70.795 174.358,61.623 174.358,70.795 172.945,70.795 172.945,56.287 175.609,56.287 182.21,66.209 182.21,56.287 "/>
  <line class="fil3 str0" x1="69.261" y1="81.729" x2="195.821" y2= "81.729" />
 </g>
</svg>
