<?xml version="1.0" encoding="UTF-8"?>
<!DOCTYPE svg PUBLIC "-//W3C//DTD SVG 1.1//EN" "http://www.w3.org/Graphics/SVG/1.1/DTD/svg11.dtd">
<!-- Creator: CorelDRAW Standard 2024 -->
<svg xmlns="http://www.w3.org/2000/svg" xml:space="preserve" width="856px" height="472px" version="1.1" style="shape-rendering:geometricPrecision; text-rendering:geometricPrecision; image-rendering:optimizeQuality; fill-rule:evenodd; clip-rule:evenodd"
viewBox="0 0 856 472.276"
 xmlns:xlink="http://www.w3.org/1999/xlink"
 xmlns:xodm="http://www.corel.com/coreldraw/odm/2003">
 <defs>
  <style type="text/css">
   <![CDATA[
    .str0 {stroke:#3A7CD5;stroke-width:4.686;stroke-miterlimit:22.9256}
    .fil3 {fill:none;fill-rule:nonzero}
    .fil0 {fill:#1E5AAA;fill-rule:nonzero}
    .fil1 {fill:#3A7CD5;fill-rule:nonzero}
    .fil2 {fill:#5B9AE5;fill-rule:nonzero}
    .fil4 {fill:white;fill-rule:nonzero}
   ]]>
  </style>
 </defs>
 <g id="Vrstva_x0020_1">
  <metadata id="CorelCorpID_0Corel-Layer"/>
  <circle class="fil0" cx="133.862" cy="216.144" r="116.363"/>
  <ellipse class="fil1" cx="134.492" cy="218.563" rx="92.782" ry="94.472"/>
  <circle class="fil2" cx="135.302" cy="239.571" r="72.727"/>
  <polygon class="fil0" points="337.178,130.075 337.178,136.312 314.65,136.312 314.65,157.071 333.827,157.071 333.827,163.308 314.65,163.308 314.65,192.166 296.684,192.166 296.684,130.075 "/>
  <path id="_1" class="fil0" d="M343.275 192.166l0 -62.091 26.655 0c6.936,0 12.49,1.459 16.633,4.391 4.157,2.932 6.237,6.857 6.237,11.791 0,7.525 -4.453,12.443 -13.375,14.708 4.577,1.707 7.541,3.569 8.891,5.586 1.349,2.032 2.265,5.973 2.746,11.807 0.574,6.966 1.738,11.574 3.491,13.808l-19.533 0c-1.242,-2.87 -1.862,-6.469 -1.862,-10.767l-0.094 -3.677 -0.093 -4.624c0,-7.152 -2.886,-10.721 -8.641,-10.721l-3.088 0 0 29.789 -17.967 0zm17.967 -34.909l3.631 0c6.826,0 10.239,-3.568 10.239,-10.705 0,-7.137 -3.413,-10.705 -10.239,-10.705l-3.631 0 0 21.41z"/>
  <polygon id="_2" class="fil0" points="442.215,130.075 442.215,136.312 419.967,136.312 419.967,155.116 438.678,155.116 438.678,161.353 419.967,161.353 419.967,185.929 446.032,185.929 446.032,192.166 402,192.166 402,130.075 "/>
  <polygon id="_3" class="fil0" points="491.801,130.075 491.801,136.312 469.553,136.312 469.553,155.116 488.264,155.116 488.264,161.353 469.553,161.353 469.553,185.929 495.618,185.929 495.618,192.166 451.586,192.166 451.586,130.075 "/>
  <path class="fil0" d="M295.978 303.002l0 -62.092 25.693 0c18.245,0 27.368,10.364 27.368,31.108 0,20.651 -9.448,30.984 -28.361,30.984l-24.7 0zm17.966 -5.12l4.732 0c4.313,0 7.308,-1.878 8.968,-5.617 1.66,-3.755 2.497,-10.535 2.497,-20.34 0,-9.79 -0.822,-16.57 -2.466,-20.293 -1.645,-3.74 -4.655,-5.602 -8.999,-5.602l-4.732 0 0 51.852z"/>
  <polygon id="_1_6" class="fil0" points="375.043,240.91 375.043,303.002 357.076,303.002 357.076,240.91 "/>
  <path id="_2_7" class="fil0" d="M426.397 258.334l-8.363 1.551c0.357,-1.675 0.528,-3.072 0.528,-4.204 0,-7.246 -4.375,-10.861 -13.11,-10.861 -6.905,0 -10.349,2.483 -10.349,7.463 0,3.724 3.863,6.92 11.574,9.588 14.879,5.12 22.311,12.707 22.311,22.745 0,5.88 -2.095,10.597 -6.268,14.165 -4.189,3.553 -9.744,5.337 -16.679,5.337 -15.36,0 -23.039,-5.941 -23.039,-17.841 0,-0.963 0.092,-2.157 0.263,-3.584l8.673 -1.909c-0.683,2.638 -1.024,4.918 -1.024,6.857 0,7.696 4.406,11.544 13.234,11.544 7.06,0 10.597,-2.778 10.597,-8.316 0,-4.127 -4.22,-7.758 -12.676,-10.876 -12.21,-4.484 -18.323,-11.652 -18.323,-21.504 0,-5.585 2.033,-10.07 6.113,-13.483 4.08,-3.413 9.433,-5.119 16.073,-5.119 13.638,0 20.465,6.143 20.465,18.447z"/>
  <path id="_3_8" class="fil0" d="M478.031 278.1l7.68 2.002c0.155,1.566 0.233,2.932 0.233,4.08 0,6.035 -2.188,10.845 -6.548,14.445 -4.375,3.599 -10.24,5.399 -17.579,5.399 -18.416,0 -27.632,-10.349 -27.632,-31.03 0,-9.806 2.684,-17.765 8.052,-23.863 5.369,-6.097 12.35,-9.154 20.961,-9.154 13.436,0 20.155,6.455 20.155,19.363l-7.727 3.537c0.109,-1.814 0.171,-3.226 0.171,-4.235 0,-9.154 -3.678,-13.731 -11.032,-13.731 -7.788,0 -11.682,9.713 -11.682,29.137 0,16.695 4.344,25.042 13.048,25.042 3.599,0 6.578,-1.428 8.967,-4.267 2.389,-2.855 3.584,-6.407 3.584,-10.674 0,-1.366 -0.217,-3.382 -0.651,-6.051z"/>
  <path id="_4" class="fil0" d="M539.393 240.91l0 41.689c0,14.29 -7.898,21.427 -23.692,21.427 -15.732,0 -23.598,-7.137 -23.598,-21.427l0 -41.689 17.966 0 0 42.232c0,5.462 0.776,9.185 2.343,11.187 1.567,2.001 4.453,2.994 8.673,2.994 8.176,0 12.257,-4.903 12.257,-14.724l0 -41.689 6.051 0z"/>
  <path id="_5" class="fil0" d="M589.677 258.334l-8.363 1.551c0.357,-1.675 0.528,-3.072 0.528,-4.204 0,-7.246 -4.376,-10.861 -13.11,-10.861 -6.905,0 -10.349,2.483 -10.349,7.463 0,3.724 3.863,6.92 11.574,9.588 14.879,5.12 22.311,12.707 22.311,22.745 0,5.88 -2.095,10.597 -6.268,14.165 -4.189,3.553 -9.744,5.337 -16.679,5.337 -15.36,0 -23.04,-5.941 -23.04,-17.841 0,-0.963 0.093,-2.157 0.264,-3.584l8.673 -1.909c-0.683,2.638 -1.024,4.918 -1.024,6.857 0,7.696 4.406,11.544 13.234,11.544 7.06,0 10.597,-2.778 10.597,-8.316 0,-4.127 -4.22,-7.758 -12.676,-10.876 -12.21,-4.484 -18.323,-11.652 -18.323,-21.504 0,-5.585 2.032,-10.07 6.113,-13.483 4.08,-3.413 9.433,-5.119 16.073,-5.119 13.638,0 20.465,6.143 20.465,18.447z"/>
  <path id="_6" class="fil0" d="M640.767 258.334l-8.362 1.551c0.357,-1.675 0.527,-3.072 0.527,-4.204 0,-7.246 -4.375,-10.861 -13.109,-10.861 -6.905,0 -10.349,2.483 -10.349,7.463 0,3.724 3.863,6.92 11.574,9.588 14.879,5.12 22.31,12.707 22.31,22.745 0,5.88 -2.094,10.597 -6.267,14.165 -4.189,3.553 -9.744,5.337 -16.679,5.337 -15.36,0 -23.04,-5.941 -23.04,-17.841 0,-0.963 0.093,-2.157 0.264,-3.584l8.673 -1.909c-0.683,2.638 -1.024,4.918 -1.024,6.857 0,7.696 4.406,11.544 13.234,11.544 7.059,0 10.597,-2.778 10.597,-8.316 0,-4.127 -4.22,-7.758 -12.676,-10.876 -12.21,-4.484 -18.323,-11.652 -18.323,-21.504 0,-5.585 2.032,-10.07 6.113,-13.483 4.08,-3.413 9.433,-5.119 16.073,-5.119 13.638,0 20.464,6.143 20.464,18.447z"/>
  <polygon id="_7" class="fil0" points="669.315,240.91 669.315,303.002 651.349,303.002 651.349,240.91 "/>
  <path id="_8" class="fil0" d="M705.465 239.887c18.075,0 27.105,10.689 27.105,32.069 0,21.38 -9.201,32.07 -27.601,32.07 -18.402,0 -27.602,-10.939 -27.602,-32.799 0,-20.899 9.371,-31.34 28.098,-31.34zm-0.496 4.933c-3.398,0 -5.71,1.877 -6.905,5.617 -1.194,3.739 -1.8,10.907 -1.8,21.519 0,10.612 0.606,17.78 1.8,21.519 1.195,3.739 3.507,5.617 6.905,5.617 3.397,0 5.709,-1.878 6.904,-5.617 1.194,-3.739 1.8,-10.907 1.8,-21.519 0,-10.581 -0.606,-17.749 -1.8,-21.504 -1.195,-3.755 -3.507,-5.632 -6.904,-5.632z"/>
  <polygon id="_9" class="fil0" points="785.911,240.91 785.911,303.002 772.133,303.002 746.254,263.748 746.254,303.002 740.203,303.002 740.203,240.91 751.607,240.91 779.86,283.375 779.86,240.91 "/>
  <line class="fil3 str0" x1="296.435" y1="349.801" x2="838.113" y2= "349.801" />
  <path class="fil4" d="M70.947 234.559l0 -4.415c4.544,-0.036 7.193,-0.386 7.947,-1.03 0.571,-0.423 0.902,-1.711 1.012,-3.845 0.423,-7.027 0.644,-15.14 0.644,-24.356 0,-6.807 -0.092,-14.129 -0.276,-21.929 -0.165,-7.818 -0.478,-12.326 -0.902,-13.503 -0.22,-0.552 -0.514,-0.919 -0.919,-1.14 -0.607,-0.405 -3.109,-0.718 -7.506,-0.975l0 -4.416c6.273,0.221 11.663,0.332 16.189,0.332 6.586,0 13.502,-0.055 20.751,-0.185 4.764,-0.091 8.775,-0.147 12.031,-0.147 2.337,0 4.562,0.074 6.678,0.221l0.534 1.104c-0.773,4.507 -1.251,9.805 -1.436,15.895l-4.636 0 -0.422 -5.759c-0.111,-1.839 -0.35,-2.961 -0.718,-3.366 -0.386,-0.423 -1.693,-0.828 -3.955,-1.27 -2.263,-0.423 -5.501,-0.643 -9.695,-0.643 -3.09,0 -6.365,0.11 -9.824,0.33 -0.404,6.09 -0.607,10.395 -0.607,12.933l0.111 11.627 -0.055 2.484c2.152,0.073 4.745,0.11 7.781,0.11 5.482,0 8.775,-0.129 9.879,-0.387 0.57,-0.147 0.993,-0.423 1.251,-0.864 0.386,-0.773 0.699,-3.036 0.957,-6.807l4.635 0c-0.11,3.183 -0.165,6.347 -0.165,9.474 0,2.962 0.055,7.69 0.165,14.147l-4.635 0c-0.295,-4.617 -0.626,-7.322 -1.012,-8.113 -0.221,-0.423 -0.663,-0.735 -1.343,-0.901 -1.729,-0.46 -5.225,-0.699 -10.486,-0.699l-7.027 0.11 0.22 20.751c0.147,5.022 0.387,7.91 0.754,8.701 0.258,0.516 0.626,0.884 1.141,1.141 0.718,0.368 3.734,0.681 9.033,0.975l0 4.415c-5.74,-0.22 -11.13,-0.331 -16.171,-0.331 -4.452,0 -11.093,0.111 -19.923,0.331z"/>
  <path class="fil4" d="M130.27 265.924l0 -2.604c2.36,-1.353 4.026,-2.377 5.016,-3.054 0.469,-5.953 0.711,-17.095 0.711,-33.443 0,-7.064 -0.069,-12.982 -0.225,-17.737 -0.157,-4.755 -0.382,-7.463 -0.677,-8.14 -0.139,-0.329 -0.347,-0.589 -0.66,-0.763 -0.503,-0.26 -2.968,-0.677 -7.393,-1.215l0 -4.373c5.12,0.208 10.986,0.312 17.633,0.312l25.026 -0.312c9.111,0 16.036,1.145 20.757,3.453 4.72,2.309 8.469,5.832 11.246,10.587 2.776,4.738 4.165,10.5 4.165,17.268 0,8.712 -2.17,16.227 -6.508,22.527 -4.339,6.317 -9.632,10.795 -15.88,13.485 -6.231,2.673 -12.895,4.009 -19.993,4.009l-19.282 -0.313c-3.089,0 -7.723,0.104 -13.936,0.313zm20.618 -6.248c2.864,0.486 5.779,0.729 8.764,0.729 7.584,0 13.364,-1.076 17.338,-3.245 3.974,-2.17 7.202,-5.71 9.666,-10.639 2.465,-4.912 3.697,-10.969 3.697,-18.136 0,-9.441 -2.447,-16.627 -7.341,-21.572 -4.321,-4.391 -11.367,-6.595 -21.155,-6.595 -2.118,0 -5.763,0.173 -10.969,0.52l-0.417 31.656c0,13.311 0.139,22.405 0.417,27.282z"/>
 </g>
</svg>
