<?xml version="1.0" encoding="UTF-8"?>
<!DOCTYPE svg PUBLIC "-//W3C//DTD SVG 1.1//EN" "http://www.w3.org/Graphics/SVG/1.1/DTD/svg11.dtd">
<!-- Creator: CorelDRAW Standard 2024 -->
<svg xmlns="http://www.w3.org/2000/svg" xml:space="preserve" width="200px" height="110px" version="1.1" style="shape-rendering:geometricPrecision; text-rendering:geometricPrecision; image-rendering:optimizeQuality; fill-rule:evenodd; clip-rule:evenodd"
viewBox="0 0 200 110.345"
 xmlns:xlink="http://www.w3.org/1999/xlink"
 xmlns:xodm="http://www.corel.com/coreldraw/odm/2003">
 <defs>
  <style type="text/css">
   <![CDATA[
    .fil6 {fill:#A6A6AB;fill-rule:nonzero}
    .fil4 {fill:#F29695;fill-rule:nonzero}
    .fil0 {fill:#F48D8C;fill-rule:nonzero}
    .fil3 {fill:#F48E8D;fill-rule:nonzero}
    .fil1 {fill:#F48F8E;fill-rule:nonzero}
    .fil2 {fill:#F48F8F;fill-rule:nonzero}
    .fil5 {fill:#F49292;fill-rule:nonzero}
   ]]>
  </style>
 </defs>
 <g id="Vrstva_x0020_1">
  <metadata id="CorelCorpID_0Corel-Layer"/>
  <path class="fil0" d="M35.646 5.199c0.318,-0.128 0.629,-0.271 0.956,-0.402 0.421,-0.167 0.841,-0.333 1.274,-0.504 0.714,-0.284 1.347,-0.549 2.09,-0.766 3.512,-1.023 6.92,-0.709 10.206,0.895 0.483,0.235 1.387,0.897 1.83,1.243 1.745,1.372 3.307,3.161 4.217,5.203 0.75,1.685 0.837,4.933 0.669,6.778 -0.18,1.934 -0.678,4.034 -1.542,5.779 -0.388,0.785 -1.476,2.137 -2.066,2.833 -0.668,0.79 -1.371,1.548 -2.079,2.301 -1.251,1.487 -1.066,3.268 -1.153,5.122 -0.184,1.151 -0.081,2.372 -1.302,2.568 -0.688,0.11 -1.242,-0.131 -1.88,-0.353 -0.106,-0.036 -0.25,-0.133 -0.346,-0.15 -0.076,0.334 -0.07,0.761 -0.061,1.052 0.027,0.908 -0.996,0.209 -0.96,0.678 0.031,0.413 0.42,0.986 -0.341,0.987 -0.678,0.001 -1.194,-0.682 -1.9,-0.317 -0.495,0.3 -0.989,1.286 -1.292,1.793 -0.284,0.476 -0.729,1.28 -1.378,1.224 -0.416,-0.036 -0.84,-0.27 -1.127,-0.566 -0.117,-0.122 -0.228,-0.251 -0.343,-0.374 -0.54,-0.572 -1.031,-1.22 -1.558,-1.813 -0.087,-0.098 -0.175,-0.195 -0.264,-0.291 -0.632,-0.547 -1.174,-0.974 -2.03,-1.092 -0.807,-0.068 -0.851,0.47 -1.005,1.108 -0.185,0.764 -0.37,1.468 -0.504,2.248 -0.105,0.614 -0.183,1.229 -0.243,1.849 -0.102,1.156 -0.111,2.3 -0.063,3.459 0.423,0.208 0.845,0.415 1.281,0.629 0.562,0.284 1.123,0.569 1.685,0.854 0.277,0.135 0.555,0.271 0.841,0.41 1.982,1.034 3.828,2.495 4.877,4.512 0.383,0.734 0.488,1.637 0.569,2.456 0.257,2.588 -0.044,5.88 -1.196,8.234l-0.028 0.058c0.38,0.053 0.76,0.107 1.152,0.162 7.678,1.168 14.781,3.946 19.604,10.353 2.701,4.156 3.213,8.613 2.372,13.414 -1.943,7.619 -6.676,14.039 -12.179,19.499 -0.241,0.12 -0.482,0.241 -0.73,0.365 0.592,-1.302 1.378,-2.399 2.212,-3.558 4.554,-6.484 9.361,-14.733 8.143,-22.946 -0.863,-4.06 -3.325,-7.071 -6.715,-9.336 -5.114,-3.081 -10.627,-4.511 -16.413,-5.764 0.105,-0.401 0.21,-0.802 0.319,-1.216 0.378,-1.411 0.842,-3.004 1.069,-4.442 0.278,-1.971 -0.043,-4.154 -0.452,-6.092 -0.229,-1.085 -0.65,-1.553 -1.478,-2.258 -1.213,-1.031 -2.648,-1.519 -4.157,-1.935 -2.4,-0.715 -3.449,-2.025 -4.991,-3.855 -0.706,-0.837 -1.566,-1.487 -2.608,-1.84 -0.531,-0.178 -1.282,-0.343 -1.84,-0.395 -0.537,-0.05 -1.291,0.231 -1.715,0.556 -0.39,0.31 -0.864,0.825 -1.019,1.305 -0.125,0.382 -0.234,0.935 -0.304,1.338 -1.024,5.907 1.869,12.956 4.384,18.21 1.118,2.331 2.325,4.603 3.495,6.906 1.962,3.819 2.456,4.831 5.483,7.923 0.48,0.49 0.54,0.584 1.24,0.708 0.598,0.107 0.799,0.132 1.348,-0.104 0.281,-0.121 0.606,-0.395 0.781,-0.665 0.448,-0.692 0.875,-1.555 1.22,-2.306 0.122,-0.252 0.244,-0.505 0.369,-0.765 0.814,-1.711 1.495,-3.453 2.14,-5.234 0.121,0 0.241,0 0.365,0 -0.228,4.072 -1.61,7.86 -4.165,11.05 -0.419,0.523 -1.179,0.955 -1.866,0.998 -0.764,0.048 -1.1,-0.096 -1.786,-0.418 -2.708,-1.271 -4.227,-4.025 -5.773,-6.442 -1.048,-1.625 -2.188,-3.175 -3.334,-4.731 -2.097,-2.88 -4.217,-5.764 -6.252,-8.686 -1.18,-1.695 -2.4,-3.486 -3.399,-5.294 -2.027,-3.676 -2.151,-5.779 -1.724,-9.895 0.055,-0.528 0.111,-1.074 0.18,-1.599 0.099,-0.748 0.386,-1.618 0.674,-2.317 0.912,-2.197 2.441,-3.844 4.089,-5.51 2.184,-2.285 4.123,-4.419 5.474,-7.299 -1.322,1.491 -2.529,3.013 -3.695,4.63 -4.167,5.558 -9.029,9.617 -16.012,11.062 -1.581,0.196 -3.152,0.313 -4.744,0.365 1.144,-1.251 2.419,-2.112 3.854,-2.988 5.676,-3.565 11.473,-8.147 13.298,-14.894 0.128,-1.146 0.121,-2.27 0.091,-3.421 -0.003,-0.431 -0.003,-0.431 -0.005,-0.87 -0.02,-1.486 -0.107,-2.947 -0.267,-4.425 -0.216,-2.022 -0.278,-4.031 -0.298,-6.064 -0.011,-0.353 -0.021,-0.707 -0.032,-1.071 -0.029,-3.316 0.826,-6.301 3.127,-8.771 3.56,-2.92 9.559,-4.889 13.604,-1.796 1.016,0.777 1.339,1.678 2.015,2.696 0.077,0.116 -0.033,-0.107 0.017,0.017zm-14.337 2.098c-1.657,2.117 -1.898,4.421 -1.839,7.032 0.003,0.302 0.006,0.604 0.009,0.916 0.045,2.334 0.323,4.577 0.666,6.886 0.763,5.885 -0.603,9.607 -3.846,14.437 -0.368,0.606 -0.734,1.214 -1.095,1.825 3.537,-1.369 6.355,-6.624 7.811,-9.917 1.269,-3.251 1.708,-6.352 2.043,-9.79 0.171,-1.644 0.346,-4.868 1.217,-6.206 0.639,-0.982 1.741,-1.905 2.911,-2.129 0.893,-0.172 1.9,-0.107 2.806,-0.059 -1.112,0.767 -1.685,1.206 -2.519,2.308 -1.585,2.093 -2.393,4.717 -2.682,7.3 -0.167,3.335 1.159,6.09 2.646,9.004 -0.408,0.519 -0.816,1.039 -1.224,1.558 -0.358,0.455 -0.715,0.911 -1.072,1.367 -0.952,1.214 -1.909,2.423 -2.879,3.623 -0.184,0.229 -0.368,0.458 -0.557,0.694 -0.356,0.443 -0.713,0.883 -1.072,1.322 -1.01,1.218 -1.01,1.218 -1.225,2.749 0.248,-0.021 0.495,-0.042 0.75,-0.064 3.418,-0.166 5.708,0.913 8.374,2.984 0.106,-0.278 0.213,-0.556 0.322,-0.843 0.821,-2.04 1.945,-4.36 3.209,-6.159 0.501,-0.713 0.628,-0.621 1.365,-0.309 0.858,0.358 1.512,0.56 2.295,1.101 1.007,0.705 1.864,1.614 2.804,2.404 0.941,-0.528 1.171,-0.995 1.72,-1.874 0.545,-0.872 0.608,-1.055 1.656,-1.239 0.238,-0.044 0.458,-0.096 0.692,-0.158 0.091,-0.276 0.1,-0.405 0.159,-0.671 0.082,-0.37 0.273,-0.649 0.59,-0.831 0.65,-0.32 1.203,-0.396 1.917,-0.311 0.28,0.033 0.859,0.115 1.052,-0.141 0.323,-0.429 0.142,-1.88 0.134,-2.452 -0.003,-0.24 -0.007,-0.48 -0.01,-0.72 0.202,-2.637 1.921,-4.162 3.627,-6.044 2.402,-2.915 3.134,-5.645 3.05,-9.38 -0.013,-0.593 -0.299,-1.626 -0.526,-2.189 -0.368,-0.912 -0.914,-1.739 -1.457,-2.555 -0.422,-0.632 -1.129,-1.227 -1.726,-1.7 -2.615,-2.075 -5.48,-2.883 -8.784,-2.948 -2.25,0 -4.117,0.392 -6.164,1.336 -0.227,0.093 -0.943,0.443 -1.154,0.454 -0.276,0.014 -0.632,-0.344 -0.844,-0.517 -0.675,-0.549 -1.402,-1.115 -2.112,-1.615 -1.243,-0.876 -2.293,-1.255 -3.806,-1.406 -1.088,-0.104 -2.974,0.403 -3.992,0.842 -1.208,0.52 -2.239,1.242 -3.24,2.085z"/>
  <path class="fil1" d="M110.928 37.826c2.77,0 5.54,0 8.394,0 0.208,0.562 0.416,1.124 0.631,1.703 0.769,2.077 1.54,4.153 2.311,6.229 0.335,0.9 0.668,1.8 1.002,2.701 0.478,1.291 0.958,2.581 1.437,3.872 0.225,0.608 0.225,0.608 0.454,1.228 0.139,0.373 0.278,0.745 0.421,1.129 0.122,0.33 0.245,0.66 0.371,1 0.244,0.734 0.244,0.734 0.672,1.115 0.694,-1.881 1.389,-3.763 2.082,-5.644 0.236,-0.638 0.471,-1.276 0.707,-1.913 1.402,-3.8 2.79,-7.603 4.145,-11.42 2.649,0 5.299,0 8.028,0 0,0.482 0,0.964 0,1.46 -0.843,0.12 -1.686,0.241 -2.554,0.365 0,6.985 0,13.97 0,21.166 0.843,0.241 1.686,0.482 2.554,0.73 0,0.602 0,1.205 0,1.825 -3.251,0 -6.503,0 -9.853,0 0,-0.602 0,-1.204 0,-1.825 0.621,-0.079 0.621,-0.079 1.255,-0.159 1.229,-0.064 1.229,-0.064 1.665,-0.571 0.034,-0.571 0.042,-1.144 0.041,-1.716 0,-0.365 0,-0.731 0,-1.107 -0.002,-0.397 -0.004,-0.795 -0.006,-1.204 0,-0.404 -0.001,-0.809 -0.001,-1.226 -0.002,-1.297 -0.007,-2.595 -0.012,-3.893 -0.002,-0.877 -0.003,-1.755 -0.005,-2.632 -0.004,-2.156 -0.01,-4.313 -0.017,-6.469 -0.091,0.25 -0.182,0.5 -0.275,0.757 -0.853,2.353 -1.707,4.705 -2.561,7.057 -0.44,1.209 -0.879,2.418 -1.317,3.627 -0.504,1.39 -1.009,2.78 -1.514,4.169 -0.158,0.435 -0.316,0.871 -0.478,1.319 -0.146,0.402 -0.292,0.804 -0.443,1.218 -0.129,0.355 -0.258,0.71 -0.39,1.075 -0.321,0.85 -0.321,0.85 -0.686,1.58 -0.723,0 -1.445,0 -2.19,0 -1.785,-4.103 -3.307,-8.304 -4.858,-12.499 -0.273,-0.736 -0.546,-1.472 -0.819,-2.208 -0.663,-1.788 -1.325,-3.576 -1.987,-5.365 -0.009,2.488 -0.015,4.976 -0.02,7.464 -0.002,0.847 -0.004,1.695 -0.007,2.542 -0.005,1.214 -0.007,2.429 -0.008,3.644 -0.002,0.381 -0.004,0.762 -0.006,1.155 0,0.351 0,0.702 0,1.063 -0.001,0.466 -0.001,0.466 -0.003,0.94 -0.034,0.712 -0.034,0.712 0.409,1.074 0.85,0.135 1.702,0.257 2.555,0.365 0,0.602 0,1.205 0,1.825 -3.011,0 -6.022,0 -9.124,0 0,-0.602 0,-1.204 0,-1.825 0.964,-0.12 1.927,-0.241 2.92,-0.365 0,-7.105 0,-14.211 0,-21.531 -0.964,-0.121 -1.927,-0.241 -2.92,-0.365 0,-0.482 0,-0.964 0,-1.46z"/>
  <path class="fil0" d="M52.538 37.826c2.769,0 5.539,0 8.393,0 1.685,3.938 3.181,7.939 4.676,11.952 0.255,0.683 0.511,1.367 0.766,2.05 0.62,1.658 1.239,3.316 1.857,4.975 1.644,-3.791 3.055,-7.661 4.471,-11.541 0.348,-0.953 0.696,-1.905 1.045,-2.857 0.215,-0.588 0.43,-1.176 0.644,-1.764 0.733,-2.004 0.733,-2.004 1.139,-2.815 2.649,0 5.299,0 8.029,0 0,0.482 0,0.964 0,1.46 -0.414,0.098 -0.828,0.196 -1.255,0.296 -0.429,0.143 -0.858,0.286 -1.3,0.434 -0.363,1.089 -0.411,1.806 -0.412,2.943 -0.002,0.565 -0.002,0.565 -0.004,1.141 0.001,0.406 0.002,0.812 0.003,1.23 -0.001,0.626 -0.001,0.626 -0.001,1.264 -0.001,0.882 0,1.764 0.001,2.647 0.002,1.353 0,2.705 -0.002,4.058 0,0.856 0.001,1.713 0.002,2.569 -0.002,0.609 -0.002,0.609 -0.003,1.23 0.002,0.376 0.003,0.753 0.004,1.141 0,0.331 0,0.662 0.001,1.004 0.012,0.903 0.012,0.903 0.411,1.939 0.843,0.121 1.686,0.241 2.555,0.365 0,0.602 0,1.205 0,1.825 -3.252,0 -6.504,0 -9.854,0 0,-0.602 0,-1.204 0,-1.825 0.843,-0.12 1.686,-0.241 2.555,-0.365 0.356,-1.069 0.409,-1.748 0.406,-2.86 0,-0.358 0,-0.716 0,-1.085 -0.002,-0.385 -0.004,-0.771 -0.006,-1.168 0,-0.395 -0.001,-0.791 -0.001,-1.198 -0.002,-1.265 -0.007,-2.529 -0.012,-3.793 -0.001,-0.856 -0.003,-1.713 -0.004,-2.57 -0.004,-2.101 -0.011,-4.202 -0.018,-6.303 -0.135,0.374 -0.135,0.374 -0.273,0.755 -0.846,2.347 -1.695,4.694 -2.545,7.04 -0.436,1.206 -0.873,2.412 -1.308,3.619 -0.5,1.387 -1.003,2.774 -1.505,4.161 -0.156,0.433 -0.312,0.866 -0.473,1.313 -0.146,0.402 -0.292,0.803 -0.442,1.217 -0.128,0.354 -0.256,0.709 -0.388,1.073 -0.365,0.894 -0.365,0.894 -1.095,1.989 -0.723,0 -1.445,0 -2.19,0 -2.529,-6.865 -5.058,-13.729 -7.663,-20.802 -0.008,2.936 -0.016,5.871 -0.023,8.896 -0.004,0.927 -0.007,1.854 -0.01,2.809 -0.001,0.731 -0.002,1.463 -0.003,2.194 -0.003,0.574 -0.003,0.574 -0.006,1.159 0,0.363 0,0.726 0,1.1 -0.001,0.474 -0.001,0.474 -0.002,0.958 -0.006,0.788 -0.006,0.788 0.408,1.496 0.848,0.149 1.7,0.272 2.555,0.365 0,0.602 0,1.205 0,1.825 -3.011,0 -6.022,0 -9.123,0 0,-0.602 0,-1.204 0,-1.825 1.264,-0.18 1.264,-0.18 2.554,-0.365 0.862,-2.039 0.83,-3.918 0.814,-6.091 0,-0.373 0,-0.747 0,-1.131 -0.002,-0.787 -0.004,-1.574 -0.009,-2.361 -0.007,-1.202 -0.007,-2.405 -0.007,-3.608 -0.002,-0.766 -0.004,-1.532 -0.007,-2.297 0,-0.359 -0.001,-0.718 -0.001,-1.088 -0.002,-0.336 -0.005,-0.672 -0.007,-1.019 -0.001,-0.294 -0.003,-0.588 -0.004,-0.891 -0.053,-0.921 -0.213,-1.781 -0.414,-2.68 -0.963,-0.241 -1.927,-0.482 -2.919,-0.73 0,-0.482 0,-0.964 0,-1.46z"/>
  <path class="fil1" d="M165.915 39.619c2.456,2.057 4.285,4.483 4.864,7.695 0.299,4.667 0.052,8.716 -3.032,12.488 -2.611,2.749 -5.283,3.931 -9.062,4.082 -4.416,0.068 -7.588,-0.839 -10.838,-3.98 -2.48,-2.861 -3.531,-6.425 -3.434,-10.166 0.352,-3.775 1.796,-6.905 4.606,-9.471 4.887,-3.852 11.758,-4.328 16.896,-0.648zm-15.208 3.316c-2.222,3.442 -2.156,7.343 -1.825,11.313 0.601,2.626 1.814,4.614 3.946,6.273 2.29,1.302 4.585,1.84 7.168,1.153 2.621,-0.914 4.086,-2.168 5.387,-4.607 1.934,-4.136 1.857,-8.417 0.384,-12.712 -1.031,-2.354 -2.429,-3.76 -4.842,-4.704 -3.857,-1.369 -7.667,0.375 -10.218,3.284z"/>
  <path class="fil2" d="M172.969 37.826c3.372,0 6.744,0 10.218,0 0,0.482 0,0.964 0,1.46 -0.414,0.113 -0.828,0.226 -1.255,0.342 -1.222,0.252 -1.222,0.252 -1.665,0.753 -0.046,1.098 -0.069,2.187 -0.074,3.285 -0.003,0.5 -0.003,0.5 -0.006,1.009 -0.004,0.707 -0.006,1.414 -0.007,2.121 -0.004,1.075 -0.015,2.15 -0.027,3.225 -0.002,0.687 -0.004,1.375 -0.005,2.062 -0.005,0.319 -0.009,0.638 -0.014,0.967 0.009,2.592 0.376,4.686 2.232,6.627 2.03,1.327 3.82,1.704 6.194,1.363 1.786,-0.478 3.221,-1.467 4.458,-2.823 0.645,-1.139 0.8,-2.083 0.811,-3.366 0.004,-0.319 0.007,-0.638 0.011,-0.966 0.001,-0.344 0.003,-0.687 0.004,-1.041 0.003,-0.529 0.003,-0.529 0.007,-1.07 0.003,-0.746 0.006,-1.493 0.007,-2.239 0.004,-1.145 0.015,-2.29 0.026,-3.436 0.003,-0.724 0.005,-1.449 0.006,-2.173 0.004,-0.344 0.009,-0.688 0.014,-1.043 -0.002,-0.317 -0.002,-0.635 -0.004,-0.963 0.002,-0.28 0.003,-0.561 0.004,-0.849 -0.044,-0.228 -0.088,-0.456 -0.134,-0.69 -1.064,-0.71 -1.688,-0.895 -2.919,-1.095 0,-0.482 0,-0.964 0,-1.46 2.89,0 5.78,0 8.758,0 0,0.482 0,0.964 0,1.46 -1.264,0.542 -1.264,0.542 -2.554,1.095 -0.006,0.445 -0.011,0.89 -0.016,1.349 -0.022,1.666 -0.05,3.332 -0.08,4.999 -0.012,0.718 -0.022,1.437 -0.031,2.155 -0.012,1.039 -0.031,2.077 -0.051,3.115 -0.003,0.316 -0.005,0.633 -0.007,0.959 -0.074,3.116 -0.629,6.089 -2.826,8.418 -2.822,2.369 -6.193,2.684 -9.737,2.461 -2.339,-0.31 -4.619,-1.602 -6.252,-3.293 -1.613,-2.705 -1.966,-5.526 -1.989,-8.625 -0.006,-0.343 -0.013,-0.686 -0.02,-1.04 -0.019,-1.082 -0.032,-2.163 -0.044,-3.245 -0.012,-0.74 -0.025,-1.479 -0.038,-2.218 -0.03,-1.8 -0.055,-3.6 -0.076,-5.4 -0.963,-0.241 -1.927,-0.482 -2.919,-0.73 0,-0.482 0,-0.964 0,-1.46z"/>
  <path class="fil3" d="M95.601 37.826c1.204,0 2.408,0 3.649,0 0.19,0.517 0.379,1.034 0.574,1.566 0.711,1.938 1.421,3.876 2.132,5.814 0.307,0.834 0.613,1.669 0.919,2.504 0.978,2.668 1.959,5.334 2.944,7.998 0.104,0.282 0.208,0.563 0.315,0.854 0.252,0.684 0.508,1.367 0.764,2.05 0.13,0.349 0.261,0.697 0.395,1.056 0.32,0.84 0.32,0.84 1.081,1.514 0.938,0.237 0.938,0.237 1.824,0.365 0,0.602 0,1.205 0,1.825 -3.131,0 -6.262,0 -9.488,0 0,-0.602 0,-1.204 0,-1.825 1.084,-0.18 1.084,-0.18 2.19,-0.365 -0.223,-2.448 -1.018,-4.616 -1.825,-6.934 -3.011,-0.12 -6.022,-0.24 -9.124,-0.365 -0.344,1.265 -0.677,2.556 -1.04,3.813 -0.336,1.165 -0.522,1.887 -0.803,2.871 -0.025,0.087 -0.027,0.577 0.056,0.62 0.041,0.021 1.93,0.323 2.152,0.36 0,0.602 0,1.205 0,1.825 -2.529,0 -5.058,0 -7.664,0 0,-0.602 0,-1.204 0,-1.825 1.084,-0.18 1.084,-0.18 2.19,-0.365 0.219,-0.672 0.219,-0.672 0.442,-1.359 0.724,-2.172 1.533,-4.31 2.344,-6.451 0.159,-0.423 0.319,-0.846 0.483,-1.282 0.335,-0.888 0.671,-1.776 1.007,-2.664 0.344,-0.91 0.688,-1.821 1.032,-2.732 0.497,-1.317 0.994,-2.634 1.492,-3.951 0.154,-0.409 0.309,-0.818 0.468,-1.24 0.142,-0.376 0.285,-0.753 0.432,-1.141 0.125,-0.332 0.251,-0.664 0.38,-1.006 0.314,-0.8 0.314,-0.8 0.679,-1.53zm0.73 3.649c-0.521,1.449 -1.041,2.897 -1.56,4.346 -0.176,0.493 -0.353,0.986 -0.531,1.48 -0.254,0.707 -0.507,1.414 -0.761,2.122 -0.152,0.426 -0.305,0.852 -0.463,1.291 -0.354,0.865 -0.354,0.865 -0.335,1.345 2.529,0 5.058,0 7.664,0 -0.822,-2.79 -0.822,-2.79 -1.761,-5.523 -0.111,-0.301 -0.223,-0.602 -0.338,-0.912 -0.169,-0.45 -0.169,-0.45 -0.342,-0.91 -0.117,-0.314 -0.233,-0.628 -0.354,-0.952 -0.284,-0.763 -0.569,-1.525 -0.854,-2.287 -0.121,0 -0.241,0 -0.365,0z"/>
  <path class="fil4" d="M22.977 74.32c2.939,2.304 6.494,5.77 7.841,9.305 0.29,0.763 0.261,1.599 0.205,2.405 -0.101,1.434 -0.489,2.684 -1.037,4.004l-0.029 0.07c-0.122,0.298 -0.243,0.596 -0.369,0.904 -2.888,6.807 -6.229,13.386 -9.896,19.806 -0.315,0 -0.773,0.024 -1.071,-0.016 0.073,-0.396 0.406,-1.233 0.562,-1.642 1.55,-4.031 3.723,-7.711 5.604,-11.582 1.001,-2.064 1.721,-3.969 2.311,-6.188 0.599,-2.256 1.404,-6.272 0.783,-8.524 -0.514,-1.862 -2.096,-4.195 -3.261,-5.745 -0.22,-0.292 -0.443,-0.582 -0.668,-0.871 -0.61,-0.831 -0.61,-0.831 -0.975,-1.926z"/>
  <path class="fil5" d="M103.714 31.937c0.701,0.34 0.716,1.079 0.465,1.728 -0.634,1.636 -3.345,1.97 -4.874,2.222 -0.356,0.059 -2.407,0.419 -2.627,0.221 -0.354,-0.316 1.184,-1.908 1.474,-2.164 1.254,-1.105 3.85,-2.691 5.562,-2.007z"/>
  <path class="fil6" d="M69.88 80.399l0 -0.584c1.632,-2.058 3.708,-4.975 6.232,-8.753l-1.82 -0.016c-0.973,0 -1.725,0.026 -2.252,0.073 -0.229,0.021 -0.375,0.061 -0.433,0.124 -0.058,0.063 -0.121,0.324 -0.183,0.784l-0.081 0.508 -0.603 0c0,-0.345 0.01,-0.757 0.03,-1.237l0.015 -0.473c0,-0.201 -0.015,-0.432 -0.045,-0.694l0.095 -0.065c1.041,0.06 1.974,0.091 2.793,0.091 3.1,0 4.898,-0.005 5.393,-0.015l0 0.527c-2.217,2.957 -4.302,5.893 -6.255,8.81 1.008,0.03 1.943,0.045 2.803,0.045 0.905,0 1.609,-0.03 2.117,-0.091 0.151,-0.025 0.252,-0.065 0.302,-0.125 0.063,-0.078 0.171,-0.45 0.324,-1.114l0.081 -0.375 0.628 0c-0.121,0.702 -0.206,1.562 -0.256,2.58 -0.295,0.025 -0.586,0.037 -0.875,0.037l-5.551 -0.082c-0.393,0 -1.212,0.015 -2.459,0.045z"/>
  <path id="_1" class="fil6" d="M85.774 80.55c-1.813,0 -3.201,-0.465 -4.164,-1.396 -0.962,-0.93 -1.443,-2.21 -1.443,-3.841 0,-1.139 0.234,-2.107 0.699,-2.904 0.468,-0.799 1.114,-1.41 1.941,-1.838 0.83,-0.427 1.893,-0.641 3.196,-0.641 1.252,0 2.275,0.206 3.072,0.616 0.794,0.41 1.408,0.978 1.838,1.707 0.429,0.729 0.643,1.624 0.643,2.685 0,1.149 -0.236,2.142 -0.706,2.979 -0.473,0.838 -1.137,1.486 -1.994,1.944 -0.857,0.46 -1.886,0.689 -3.082,0.689zm0.281 -0.8c0.991,0 1.78,-0.364 2.369,-1.093 0.59,-0.73 0.885,-1.838 0.885,-3.324 0,-1.561 -0.337,-2.76 -1.014,-3.595 -0.548,-0.671 -1.39,-1.008 -2.529,-1.008 -1.066,0 -1.89,0.352 -2.474,1.053 -0.585,0.702 -0.877,1.783 -0.877,3.241 0,1.048 0.161,1.938 0.48,2.667 0.322,0.729 0.729,1.255 1.225,1.576 0.495,0.322 1.141,0.483 1.935,0.483z"/>
  <path id="_2" class="fil6" d="M93.185 80.399l0 -0.377c0.342,-0.196 0.584,-0.345 0.727,-0.443 0.068,-0.862 0.103,-2.476 0.103,-4.844 0,-1.024 -0.01,-1.881 -0.033,-2.57 -0.022,-0.689 -0.055,-1.081 -0.098,-1.179 -0.02,-0.048 -0.05,-0.085 -0.095,-0.11 -0.073,-0.038 -0.43,-0.098 -1.071,-0.176l0 -0.634c0.741,0.03 1.591,0.045 2.554,0.045l3.625 -0.045c1.32,0 2.323,0.166 3.007,0.5 0.684,0.335 1.227,0.845 1.629,1.534 0.402,0.686 0.603,1.521 0.603,2.501 0,1.262 -0.314,2.351 -0.942,3.264 -0.629,0.915 -1.396,1.563 -2.301,1.953 -0.902,0.387 -1.868,0.581 -2.896,0.581l-2.793 -0.045c-0.447,0 -1.119,0.015 -2.019,0.045zm2.987 -0.905c0.415,0.07 0.837,0.105 1.27,0.105 1.098,0 1.935,-0.156 2.511,-0.47 0.576,-0.314 1.043,-0.827 1.4,-1.541 0.357,-0.711 0.536,-1.589 0.536,-2.627 0,-1.368 -0.355,-2.409 -1.064,-3.125 -0.626,-0.636 -1.646,-0.955 -3.064,-0.955 -0.307,0 -0.835,0.025 -1.589,0.075l-0.06 4.586c0,1.928 0.02,3.245 0.06,3.952z"/>
  <path id="_3" class="fil6" d="M105.283 80.399l0 -0.604c0.583,-0.045 0.915,-0.09 0.995,-0.14 0.058,-0.031 0.104,-0.081 0.131,-0.156 0.05,-0.123 0.086,-0.631 0.108,-1.529 0.023,-0.897 0.033,-1.765 0.033,-2.609 0,-1.572 -0.015,-2.693 -0.048,-3.369 -0.032,-0.674 -0.083,-1.051 -0.156,-1.132 -0.07,-0.078 -0.281,-0.128 -0.636,-0.153l-0.427 -0.038 0 -0.603 0.832 0.025c0.515,0.013 0.925,0.02 1.229,0.02 0.418,0 1.091,-0.01 2.019,-0.027 0.5,-0.013 0.867,-0.018 1.104,-0.018 0.88,0 1.528,0.083 1.948,0.249 0.42,0.166 0.739,0.42 0.958,0.757 0.219,0.337 0.327,0.759 0.327,1.262 0,0.91 -0.322,1.672 -0.968,2.288 -0.646,0.613 -1.466,0.92 -2.461,0.92 -0.129,0 -0.262,-0.01 -0.405,-0.031 -0.143,-0.017 -0.294,-0.045 -0.458,-0.077 -0.083,-0.176 -0.17,-0.345 -0.264,-0.511l0.169 -0.181c0.108,0.023 0.209,0.04 0.299,0.056 0.09,0.012 0.174,0.02 0.246,0.02 0.496,0 0.9,-0.171 1.215,-0.516 0.314,-0.344 0.47,-0.827 0.47,-1.445 0,-0.689 -0.164,-1.205 -0.488,-1.544 -0.324,-0.339 -0.802,-0.508 -1.433,-0.508 -0.254,0 -0.556,0.035 -0.9,0.106 -0.05,1.518 -0.075,2.805 -0.075,3.861 0,0.355 0.02,1.486 0.057,3.397 0.016,0.754 0.041,1.186 0.076,1.302 0.022,0.083 0.07,0.141 0.138,0.176 0.108,0.055 0.526,0.103 1.252,0.148l0 0.604c-0.867,-0.03 -1.599,-0.045 -2.192,-0.045 -0.267,0 -1.164,0.015 -2.695,0.045z"/>
  <path id="_4" class="fil6" d="M120.118 80.55c-1.812,0 -3.2,-0.465 -4.163,-1.396 -0.963,-0.93 -1.443,-2.21 -1.443,-3.841 0,-1.139 0.234,-2.107 0.699,-2.904 0.467,-0.799 1.114,-1.41 1.941,-1.838 0.829,-0.427 1.893,-0.641 3.195,-0.641 1.252,0 2.275,0.206 3.072,0.616 0.795,0.41 1.408,0.978 1.838,1.707 0.43,0.729 0.644,1.624 0.644,2.685 0,1.149 -0.237,2.142 -0.707,2.979 -0.473,0.838 -1.136,1.486 -1.994,1.944 -0.857,0.46 -1.885,0.689 -3.082,0.689zm0.282 -0.8c0.99,0 1.78,-0.364 2.368,-1.093 0.591,-0.73 0.885,-1.838 0.885,-3.324 0,-1.561 -0.337,-2.76 -1.013,-3.595 -0.548,-0.671 -1.39,-1.008 -2.529,-1.008 -1.066,0 -1.891,0.352 -2.474,1.053 -0.586,0.702 -0.878,1.783 -0.878,3.241 0,1.048 0.161,1.938 0.481,2.667 0.321,0.729 0.729,1.255 1.224,1.576 0.495,0.322 1.141,0.483 1.936,0.483z"/>
  <path id="_5" class="fil6" d="M126.612 70.669l0 -0.603c0.93,0.03 1.78,0.045 2.554,0.045 0.684,0 1.436,-0.015 2.253,-0.045l0 0.603c-0.568,0.041 -0.91,0.086 -1.018,0.139 -0.111,0.05 -0.166,0.133 -0.166,0.246 0,0.146 0.206,0.729 0.618,1.752l2.084 5.084 1.665 -4.111c0.613,-1.516 0.92,-2.428 0.92,-2.733 0,-0.115 -0.053,-0.198 -0.159,-0.248 -0.105,-0.051 -0.465,-0.093 -1.081,-0.129l0 -0.603c0.898,0.03 1.499,0.045 1.8,0.045 0.32,0 0.888,-0.015 1.708,-0.045l0 0.603c-0.496,0.051 -0.785,0.109 -0.863,0.179 -0.118,0.093 -0.402,0.661 -0.855,1.702l-2.252 5.428c-0.46,1.071 -0.787,1.928 -0.983,2.572l-1.071 0 -2.595 -6.253c-0.596,-1.425 -1.015,-2.393 -1.257,-2.901 -0.136,-0.302 -0.256,-0.485 -0.357,-0.553 -0.1,-0.065 -0.415,-0.123 -0.945,-0.174z"/>
  <path id="_6" class="fil6" d="M139.248 80.399l0 -0.377c0.259,-0.119 0.497,-0.257 0.714,-0.415 0.098,-0.769 0.145,-2.386 0.145,-4.85 0,-1.679 -0.017,-2.793 -0.052,-3.341 -0.013,-0.292 -0.063,-0.475 -0.151,-0.55 -0.086,-0.076 -0.45,-0.141 -1.094,-0.197l0 -0.603c1.159,0.03 2.074,0.045 2.746,0.045l4.057 -0.045c0.428,0 0.812,0.018 1.154,0.05l0.053 0.083c-0.103,0.533 -0.178,1.242 -0.226,2.13l-0.589 0c-0.025,-0.714 -0.052,-1.096 -0.085,-1.147 -0.033,-0.048 -0.143,-0.095 -0.334,-0.138 -0.41,-0.088 -1.034,-0.133 -1.876,-0.133 -0.412,0 -0.895,0.015 -1.445,0.045 -0.061,1.529 -0.096,2.745 -0.106,3.65 0.525,0.031 1.018,0.046 1.478,0.046 0.681,0 1.091,-0.023 1.23,-0.066 0.083,-0.03 0.14,-0.1 0.175,-0.213 0.031,-0.088 0.063,-0.398 0.104,-0.928l0.633 0c-0.025,0.832 -0.038,1.375 -0.038,1.626l0.038 1.662 -0.633 0c-0.036,-0.648 -0.078,-1.02 -0.134,-1.119 -0.03,-0.06 -0.095,-0.103 -0.198,-0.128 -0.247,-0.052 -0.8,-0.08 -1.66,-0.08 -0.268,0 -0.585,0.015 -0.95,0.045 -0.01,0.262 -0.015,0.526 -0.015,0.797 0,1.405 0.025,2.489 0.076,3.246l1.46 0.015c0.832,0 1.592,-0.045 2.28,-0.136 0.121,-0.452 0.237,-0.965 0.347,-1.539l0.619 0c-0.111,0.875 -0.176,1.715 -0.196,2.52 -0.448,0.03 -0.878,0.045 -1.29,0.045 -0.269,0 -0.802,-0.008 -1.596,-0.023 -0.742,-0.015 -1.426,-0.022 -2.049,-0.022 -0.82,0 -1.685,0.015 -2.592,0.045zm6.426 -13.531l-2.042 2.519 -0.862 0 -1.863 -2.519 0.611 0 1.709 1.478 1.805 -1.478 0.642 0z"/>
  <path id="_7" class="fil6" d="M148.477 80.399l0 -0.377c0.342,-0.196 0.583,-0.345 0.726,-0.443 0.068,-0.862 0.103,-2.476 0.103,-4.844 0,-1.024 -0.01,-1.881 -0.032,-2.57 -0.023,-0.689 -0.056,-1.081 -0.098,-1.179 -0.021,-0.048 -0.051,-0.085 -0.096,-0.11 -0.073,-0.038 -0.43,-0.098 -1.071,-0.176l0 -0.634c0.742,0.03 1.591,0.045 2.554,0.045l3.626 -0.045c1.319,0 2.323,0.166 3.006,0.5 0.684,0.335 1.227,0.845 1.63,1.534 0.402,0.686 0.603,1.521 0.603,2.501 0,1.262 -0.314,2.351 -0.943,3.264 -0.628,0.915 -1.395,1.563 -2.3,1.953 -0.903,0.387 -1.868,0.581 -2.896,0.581l-2.794 -0.045c-0.447,0 -1.118,0.015 -2.018,0.045zm2.986 -0.905c0.415,0.07 0.838,0.105 1.27,0.105 1.099,0 1.936,-0.156 2.512,-0.47 0.575,-0.314 1.043,-0.827 1.4,-1.541 0.357,-0.711 0.535,-1.589 0.535,-2.627 0,-1.368 -0.354,-2.409 -1.063,-3.125 -0.626,-0.636 -1.647,-0.955 -3.065,-0.955 -0.306,0 -0.834,0.025 -1.589,0.075l-0.06 4.586c0,1.928 0.02,3.245 0.06,3.952z"/>
  <path id="_8" class="fil6" d="M160.514 80.399l0 -0.604c0.596,-0.025 0.945,-0.065 1.048,-0.118 0.068,-0.04 0.119,-0.103 0.154,-0.191 0.052,-0.118 0.088,-0.535 0.1,-1.249 0.028,-1.182 0.04,-2.074 0.04,-2.675l-0.015 -3.128c0,-0.827 -0.025,-1.304 -0.08,-1.433 -0.028,-0.073 -0.075,-0.128 -0.138,-0.161 -0.098,-0.06 -0.468,-0.115 -1.109,-0.171l0 -0.603c0.764,0.03 1.332,0.045 1.7,0.045 0.407,0 0.869,-0.015 1.387,-0.045 1.134,1.446 2.416,3.017 3.847,4.709 0.953,1.131 1.772,2.066 2.463,2.806l0 -2.929c0,-1.112 -0.01,-2.069 -0.03,-2.874 -0.02,-0.478 -0.058,-0.772 -0.118,-0.88 -0.03,-0.058 -0.083,-0.1 -0.161,-0.125 -0.08,-0.026 -0.425,-0.058 -1.033,-0.104l0 -0.603c0.533,0.03 1.063,0.045 1.594,0.045 0.724,0 1.378,-0.015 1.966,-0.045l0 0.603c-0.548,0.036 -0.878,0.073 -0.988,0.119 -0.066,0.025 -0.116,0.057 -0.156,0.103 -0.038,0.045 -0.068,0.1 -0.088,0.171 -0.033,0.118 -0.053,0.495 -0.058,1.136l-0.022 2.954 -0.016 2.974c0,0.8 0.016,1.596 0.046,2.393l-0.096 0.103c-0.596,-0.108 -1.018,-0.178 -1.264,-0.213 -1.262,-1.398 -2.783,-3.155 -4.571,-5.267 -0.902,-1.071 -1.629,-1.971 -2.185,-2.7l0 2.863c0,0.78 0.01,1.72 0.031,2.819 0.015,0.809 0.047,1.277 0.103,1.4 0.02,0.053 0.055,0.095 0.108,0.123 0.093,0.055 0.445,0.103 1.056,0.148l0 0.604c-0.79,-0.03 -1.355,-0.045 -1.695,-0.045 -0.284,0 -0.89,0.015 -1.82,0.045z"/>
  <path id="_9" class="fil6" d="M173.592 80.399l0 -0.377c0.259,-0.119 0.498,-0.257 0.714,-0.415 0.098,-0.769 0.146,-2.386 0.146,-4.85 0,-1.679 -0.018,-2.793 -0.053,-3.341 -0.013,-0.292 -0.063,-0.475 -0.151,-0.55 -0.085,-0.076 -0.45,-0.141 -1.093,-0.197l0 -0.603c1.159,0.03 2.074,0.045 2.745,0.045l4.058 -0.045c0.427,0 0.812,0.018 1.154,0.05l0.052 0.083c-0.103,0.533 -0.178,1.242 -0.226,2.13l-0.588 0c-0.025,-0.714 -0.053,-1.096 -0.086,-1.147 -0.032,-0.048 -0.143,-0.095 -0.334,-0.138 -0.41,-0.088 -1.033,-0.133 -1.876,-0.133 -0.412,0 -0.895,0.015 -1.445,0.045 -0.06,1.529 -0.096,2.745 -0.106,3.65 0.526,0.031 1.019,0.046 1.479,0.046 0.681,0 1.091,-0.023 1.229,-0.066 0.083,-0.03 0.141,-0.1 0.176,-0.213 0.03,-0.088 0.063,-0.398 0.103,-0.928l0.634 0c-0.026,0.832 -0.038,1.375 -0.038,1.626l0.038 1.662 -0.634 0c-0.035,-0.648 -0.078,-1.02 -0.133,-1.119 -0.03,-0.06 -0.096,-0.103 -0.199,-0.128 -0.246,-0.052 -0.799,-0.08 -1.659,-0.08 -0.269,0 -0.586,0.015 -0.95,0.045 -0.011,0.262 -0.015,0.526 -0.015,0.797 0,1.405 0.025,2.489 0.075,3.246l1.461 0.015c0.832,0 1.591,-0.045 2.28,-0.136 0.12,-0.452 0.236,-0.965 0.347,-1.539l0.618 0c-0.11,0.875 -0.176,1.715 -0.196,2.52 -0.447,0.03 -0.877,0.045 -1.29,0.045 -0.269,0 -0.802,-0.008 -1.596,-0.023 -0.742,-0.015 -1.425,-0.022 -2.049,-0.022 -0.82,0 -1.684,0.015 -2.592,0.045zm6.426 -13.531l-2.041 2.519 -0.863 0 -1.863 -2.519 0.611 0 1.71 1.478 1.805 -1.478 0.641 0z"/>
 </g>
</svg>
